<svg id="Layer_1" data-name="Layer 1" xmlns="http://www.w3.org/2000/svg" viewBox="0 0 582 582"><defs><style>.cls-1,.cls-2,.cls-3{fill:none;stroke:#fff;stroke-miterlimit:10;}.cls-1{stroke-width:8px;}.cls-2{stroke-width:3px;}.cls-3{stroke-width:6px;}</style></defs><title>browillow-logo</title><circle class="cls-1" cx="291" cy="291" r="287"/><path class="cls-2" d="M530.37574,486.49869" transform="translate(-13.39593 -14.93062)"/><path class="cls-2" d="M78.41613,479.11276" transform="translate(-13.39593 -14.93062)"/><path class="cls-2" d="M78.41613,479.11276" transform="translate(-13.39593 -14.93062)"/><path class="cls-3" d="M78.41614,479.11275a1180.8229,1180.8229,0,0,1,451.95959,7.38593" transform="translate(-13.39593 -14.93062)"/><path class="cls-2" d="M269.28992,460.44811a86.29534,86.29534,0,0,0,19.58761-29.74506c4.18222-10.76425,5.01514-19.57626,6.18558-31.95874,1.43255-15.15549.77762-26.5621,0-39.17526-.93958-15.24024-1.66251-26.96625-5.15463-42.268a197.36911,197.36911,0,0,0-13.91755-40.2062c-5.10571-8.1124-11.556-13.29383-16.48159-11.99924-3.06925.8067-4.87574,4.32712-8.36341,11.335a101.08419,101.08419,0,0,0-7,18.75,124.89612,124.89612,0,0,0-4.22421,20.43042,119.2227,119.2227,0,0,0,4.12369,47.1608" transform="translate(-13.39593 -14.93062)"/><path class="cls-2" d="M341.54223,461.908c-6.66882-3.87485-16.3016-10.83518-22.68042-22.52854-5.51681-10.11319-5.96081-18.9292-5.15463-45.36084,1.20792-39.60318,1.89936-59.74243,6.18558-76.28866a210.41084,210.41084,0,0,1,14.433-39.17527c.35428-1.24823,3.0261-10.10522,11.78153-13.69595,1.52154-.624,8.29449-3.1673,14.433,0,2.97739,1.53626,4.73407,4.19589,8.24744,9.51523a94.195,94.195,0,0,1,6.18557,11.34021c3.56562,7.44913,5.34842,11.17371,6.18555,15.46393a38.63,38.63,0,0,1,0,14.433" transform="translate(-13.39593 -14.93062)"/><path class="cls-2" d="M304.39593,315.611" transform="translate(-13.39593 -14.93062)"/><path class="cls-2" d="M275.99093,277.09481a68.26416,68.26416,0,0,0-10.595-18.16419c-3.78647-4.5329-6.40527-6.16458-8-7a52.45223,52.45223,0,0,0-7-2.66667c-2.13589-.72823-4.48513-1.52358-7.66665-2.33333a49.22331,49.22331,0,0,0-8.66669-1.66667,40.52906,40.52906,0,0,0-7,0,42.29791,42.29791,0,0,0-7.33331,1.33334,31.71434,31.71434,0,0,0-6,2,26.47522,26.47522,0,0,0-8,5.66666,32.12731,32.12731,0,0,0-3.66669,4.66667,30.02318,30.02318,0,0,0-2.66666,4.37119c-.70138,1.46243-.558,1.54055-1.66665,4.29547-1.01685,2.52664-1.16541,2.53021-2,4.66668-.42087,1.07743-.83615,2.32856-1.66669,4.83085-.4935,1.48684-1.01224,3.04971-1.66666,5.16915-.652,2.11164-1.09826,3.67316-1.66665,5.66666-.54187,1.90045-1.13489,3.98029-1.66669,6-.97974,3.72086-1.55536,6.53119-2.66666,12a78.01636,78.01636,0,0,0-1.66665,9.68042c-.03565.67383-.00772.46784,0,7.31958.00015.1279.00009,2.41861,0,7-.00016,7.32245-.0008,7.29071,0,7.33334a59.67667,59.67667,0,0,0,1.66665,12.66666" transform="translate(-13.39593 -14.93062)"/><path class="cls-2" d="M416.72928,374.93062v-7.33334l.66665-8.66666,1.33335-9,3.33334-9.66666,3.33331-8,4-9.33334,2.66669-7.31958,4-9.68042,2.66663-8.4089,2.66668-8.5911V271.09728l-2.66668-6.1995-4.66663-6.63382-6.66669-6-8-4-6.66665-3.15112-7.5-3.51554q-3.91668-1.33332-7.83335-2.66667l-10-2.66667H368.72928l-7.66669.83334q-4.16665,1.08333-8.33331,2.16666l-8.83335,3.66667q-4.25,2.66666-8.5,5.33333l-6,4.66667-6.66665,10.37119-4.66669,8.96215-4.66705,10-3.99961,10.66666-5,13-3.5-14-3.5-9c-.72641-2.01568-1.812-5.13235-3-9-.91339-2.97378-1.93051-6.28522-3-10.62881-2.08993-8.48793-1.67318-9.92423-3.66665-12.70452-1.379-1.92326-1.64832-1.33349-6.33335-5.48446-5.7261-5.0734-5.48343-6.09587-9.33334-8.84888a46.60375,46.60375,0,0,0-8.66666-4.66666c-5.22924-2.36717-5.8472-1.925-10-4-1.44827-.72365-3.87408-2.27-8.66665-5.33334-6.45713-4.12723-6.77124-4.48192-8.66669-5.33333a35.11854,35.11854,0,0,0-9.33331-2.66667,30.37075,30.37075,0,0,0-10,0,31.38053,31.38053,0,0,0-9.33335,3.33334,42.33616,42.33616,0,0,0-8,5.33333,55.55661,55.55661,0,0,0-7.33334,7.33333c-.60748.70726-1.96881,2.48114-4.66666,6-3.9487,5.15039-5.93792,7.74805-6.66665,8.84888-1.96582,2.96954-1.60236,2.885-4.66669,7.81779-3.07782,4.9545-3.25006,4.72678-4.66666,7.33334a61.594,61.594,0,0,0-4,9.33332c-.88681,2.47345-.81735,2.60776-2.66665,8.66668-2.58126,8.457-2.9404,8.92881-3.33335,11.33332a33.92938,33.92938,0,0,0,0,10.66668" transform="translate(-13.39593 -14.93062)"/><path class="cls-2" d="M281.39593,245.11283l-5.405-14.84888,2.7025-9.33333,2.7025-7.0865,3.33334-8.24683,3.33333-6.66667,7.84679-4.66667,8.48654-3.33333,5.66667-3.33333,7.33333-9.33334,4.66667-9.33333,4-9.33333,4.66109-7.32457c2.3488-3.691,9.18865-6.86225,12.86654-8.78693,10.67209-5.58486,21.58554-10.93591,33.10784-14.54064,13.03268-4.07725,27.09215-5.80219,40.39112-2.70184,6.88366,1.60476,13.40658,4.45616,19.82238,7.42222,11.79362,5.45224,23.52943,11.44333,33.24977,20.0649,16.61016,14.73258,25.94629,35.81751,34.1405,56.45246" transform="translate(-13.39593 -14.93062)"/><path class="cls-2" d="M361.06259,237.09729c9.01508-10.50866,22.39359-16.63058,34.63657-22.47212,4.73687-2.26013,9.52951-4.53949,14.66485-5.6232,4.80524-1.01407,9.76395-.94983,14.67456-.88118,7.67084.10724,16.29712.7735,25.77332,5.51807,4.72815,2.36729,8.994,6.30835,17.52582,14.19046,4.315,3.98645,7.36706,7.21861,9.25659,12.16466a28.14,28.14,0,0,1,1.65124,8.00291c1.21271,12.94981-.5592,19.581-.34961,34.43373.07239,5.13068.1214,7.76209.75,11,1.3664,7.03833,3.4665,8.6366,4.5,15.25a44.13388,44.13388,0,0,1,0,12c-.71875,7.50064-2.27368,10.31278-3.41607,16.30069a60.32329,60.32329,0,0,0-.46735,19.069" transform="translate(-13.39593 -14.93062)"/><path class="cls-2" d="M310.0626,187.59729c11.45006-2.05558,22.64043-1.21009,31.79,6.81752-.015,9.47642,1.58494,19.88114-3.83932,27.65161a18.0483,18.0483,0,0,1-3.22181,3.50877c-3.4302,2.86747-7.67228,3.97049-11.49822,6.10126" transform="translate(-13.39593 -14.93062)"/><path class="cls-2" d="M330.72927,152.264" transform="translate(-13.39593 -14.93062)"/><path class="cls-2" d="M288.0626,198.93062c.19735-9.392-5.24763-13.48827-14.45924-14.46509-11.49378-1.21882-23.09729-.68825-34.63036.0738-17.99719,1.18917-36.32431,3.03086-52.82285,10.3186-15.3175,6.76606-28.26394,17.88287-40.43515,29.38362-7.83289,7.40141-15.51364,15.107-21.368,24.1547s-9.82054,19.61144-9.5214,30.38388a82.56609,82.56609,0,0,0,.89886,8.93109l3.17535,23.10553a262.337,262.337,0,0,1,2.74067,26.602c.29364,8.497-1.53383,16.86687-1.24452,25.25418" transform="translate(-13.39593 -14.93062)"/><path class="cls-2" d="M285.64593,188.68062c-3.06945-13.25909-7.0722-23.98427-20.56555-29.792-9.91333-4.26683-21.00973-4.62166-31.8009-4.79576-13.58228-.21915-27.39212-.22392-40.43338,3.57759-4.77991,1.39334-18.95368,4.15834-33.25847,10.75519-3.12781,1.44243-6.07672,2.96431-11.525,5.17164-10.22561,4.14284-12.57543,3.94248-18.33335,7-1.46013.77535-2.23387,1.27933-13.33333,10-9.56741,7.517-14.39717,11.31647-16.65408,13.32694A146.84241,146.84241,0,0,0,85.06059,218.945c-13.2625,16.0807-16.31418,40.01141-17.16466,50.48559" transform="translate(-13.39593 -14.93062)"/><path class="cls-2" d="M323.78847,164.31287c-7.104-20.39177-25.16686-34.9651-35.26738-54.051-2.13659-4.03729-3.95289-8.33143-7.00543-11.72949a27.52222,27.52222,0,0,0-7.32062-5.57912,40.95493,40.95493,0,0,0-12.28251-4.386c-7.3107-1.34217-14.82371-.62513-22.22152.096-14.98929,1.46116-30.0973,2.94548-44.49535,7.36249-13.249,4.06451-25.63954,10.53987-37.47614,17.74761C132.40058,129.191,108.504,148.15059,88.89593,170.43062" transform="translate(-13.39593 -14.93062)"/><path class="cls-2" d="M301.58071,128.8061c-.9383-8.1756,6.03987-14.87165,12.38829-20.10791,7.122-5.87429,14.3439-11.81249,22.71222-15.71134A78.539,78.539,0,0,1,355.003,87.4044a139.77834,139.77834,0,0,1,57.651.99784c22.35739,5.13593,43.173,15.75128,62.08562,28.73367,3.1345,2.15165,6.32456,4.48115,8.16932,7.80554" transform="translate(-13.39593 -14.93062)"/><path class="cls-2" d="M337.46179,147.18247c8.81219-1.83684,17.91149.30723,26.65641,2.44153l16.63434,4.05981a41.38031,41.38031,0,0,1,7.95679,2.52069c4.49078,2.12348,8.12544,5.81758,12.70786,7.73534,3.20711,1.3422,6.7129,1.74483,10.12046,2.43446a60.16732,60.16732,0,0,1,33.13822,19.2732" transform="translate(-13.39593 -14.93062)"/><path class="cls-2" d="M225.448,90.631l-24.70643,21.34167a32.809,32.809,0,0,0-5.31538,5.35814,32.78849,32.78849,0,0,0-2.837,5.08777l-5.75339,11.93122a7.61065,7.61065,0,0,1-5.79661,5.19043l-14.31673,4.70005" transform="translate(-13.39593 -14.93062)"/><path class="cls-2" d="M288.05315,110.389c-5.51966.84466-11.34879-1.124-16.65716.60842a24.95165,24.95165,0,0,0-5.862,3.15978l-20.52751,13.55961A41.08988,41.08988,0,0,0,234.0626,138.264" transform="translate(-13.39593 -14.93062)"/><path class="cls-2" d="M468.33771,227.82932c16.56345,5.517,31.02074,10.34624,43.85824,23.67921a39.4457,39.4457,0,0,1,6.28687,8.1274c6.56949,11.87,3.40969,27.1931,7.55832,40.244,2.44162,7.68094,7.30288,14.20928,10.45916,21.589,4.047,9.46214,3.716,18.40473,3.89563,28.46176" transform="translate(-13.39593 -14.93062)"/><path class="cls-2" d="M252.62023,271.06413a21.472,21.472,0,0,0-6.33078-.58738,21.13086,21.13086,0,0,0-5.44285,1.02818,21.43387,21.43387,0,0,0-10.00022,6.97284,22.86238,22.86238,0,0,0,12.04413-.80129,22.58847,22.58847,0,0,0,3.32252-1.466A22.91219,22.91219,0,0,0,252.62023,271.06413Z" transform="translate(-13.39593 -14.93062)"/><path class="cls-2" d="M249.99457,281.21749a21.47186,21.47186,0,0,0,2.037,6.02281,21.1313,21.1313,0,0,0,3.15211,4.55478,21.434,21.434,0,0,0,10.43609,6.30182,22.86232,22.86232,0,0,0-5.62847-10.67817,22.58935,22.58935,0,0,0-2.6901-2.4396A22.91246,22.91246,0,0,0,249.99457,281.21749Z" transform="translate(-13.39593 -14.93062)"/><path class="cls-2" d="M224.06764,295.77153a21.47168,21.47168,0,0,0,6.34841.34847,21.13115,21.13115,0,0,0,5.40025-1.2325,21.434,21.434,0,0,0,9.73044-7.34463,22.86236,22.86236,0,0,0-12.00539,1.25445,22.58994,22.58994,0,0,0-3.26494,1.59011A22.91242,22.91242,0,0,0,224.06764,295.77153Z" transform="translate(-13.39593 -14.93062)"/><path class="cls-2" d="M244.0824,296.27188a21.47137,21.47137,0,0,0,2.758,5.72861,21.13093,21.13093,0,0,0,3.68527,4.13528,21.43407,21.43407,0,0,0,11.1282,4.97878,22.86227,22.86227,0,0,0-6.89163-9.91,22.59,22.59,0,0,0-2.96816-2.09245A22.91254,22.91254,0,0,0,244.0824,296.27188Z" transform="translate(-13.39593 -14.93062)"/><path class="cls-2" d="M242.3109,302.87505a21.47151,21.47151,0,0,0-6.35755.07372,21.13061,21.13061,0,0,0-5.30652,1.58826,21.434,21.434,0,0,0-9.22143,7.97434,22.86233,22.86233,0,0,0,11.89564-2.04862,22.58892,22.58892,0,0,0,3.15219-1.80333A22.91252,22.91252,0,0,0,242.3109,302.87505Z" transform="translate(-13.39593 -14.93062)"/><path class="cls-2" d="M241.0824,311.27188a21.47137,21.47137,0,0,0,2.758,5.72861,21.13093,21.13093,0,0,0,3.68527,4.13528,21.43407,21.43407,0,0,0,11.1282,4.97878,22.86227,22.86227,0,0,0-6.89163-9.91,22.59,22.59,0,0,0-2.96816-2.09245A22.91254,22.91254,0,0,0,241.0824,311.27188Z" transform="translate(-13.39593 -14.93062)"/><path class="cls-2" d="M238.946,320.15228a21.47179,21.47179,0,0,0-6.3366.52082,21.13138,21.13138,0,0,0-5.18163,1.95767,21.434,21.434,0,0,0-8.63753,8.60337,22.86222,22.86222,0,0,0,11.722-2.88047,22.59023,22.59023,0,0,0,3.01749-2.02064A22.91221,22.91221,0,0,0,238.946,320.15228Z" transform="translate(-13.39593 -14.93062)"/><path class="cls-2" d="M240.0824,328.27188a21.47137,21.47137,0,0,0,2.758,5.72861,21.13093,21.13093,0,0,0,3.68527,4.13528,21.43407,21.43407,0,0,0,11.1282,4.97878,22.86227,22.86227,0,0,0-6.89163-9.91,22.59,22.59,0,0,0-2.96816-2.09245A22.91254,22.91254,0,0,0,240.0824,328.27188Z" transform="translate(-13.39593 -14.93062)"/><path class="cls-2" d="M238.839,339.24257a21.47159,21.47159,0,0,0-6.31527-.7356,21.1307,21.1307,0,0,0-5.46545.90034,21.43393,21.43393,0,0,0-10.1609,6.73655,22.86232,22.86232,0,0,0,12.0596-.51879,22.58954,22.58954,0,0,0,3.356-1.38771A22.91238,22.91238,0,0,0,238.839,339.24257Z" transform="translate(-13.39593 -14.93062)"/><path class="cls-2" d="M262.80162,352.08871a21.47176,21.47176,0,0,0-4.77234-4.201,21.13054,21.13054,0,0,0-5.00539-2.3723,21.43384,21.43384,0,0,0-12.18864-.24876,22.86235,22.86235,0,0,0,10.20859,6.44109,22.58916,22.58916,0,0,0,3.54891.7704A22.91224,22.91224,0,0,0,262.80162,352.08871Z" transform="translate(-13.39593 -14.93062)"/><path class="cls-2" d="M220.23,361.146a21.47172,21.47172,0,0,0,6.3578.04557,21.131,21.131,0,0,0,5.33539-1.48843,21.434,21.434,0,0,0,9.36941-7.79994,22.86224,22.86224,0,0,0-11.932,1.82509,22.59058,22.59058,0,0,0-3.18547,1.74388A22.9122,22.9122,0,0,0,220.23,361.146Z" transform="translate(-13.39593 -14.93062)"/><path class="cls-2" d="M244.16663,357.15951a21.4717,21.4717,0,0,0,4.3767,4.61176,21.13055,21.13055,0,0,0,4.77267,2.81128,21.434,21.434,0,0,0,12.11733,1.34,22.86235,22.86235,0,0,0-9.59035-7.33,22.58986,22.58986,0,0,0-3.4656-1.08531A22.91249,22.91249,0,0,0,244.16663,357.15951Z" transform="translate(-13.39593 -14.93062)"/><path class="cls-2" d="M244.00971,361.56071a21.47191,21.47191,0,0,0-4.08779,4.86967,21.13041,21.13041,0,0,0-2.25412,5.05971,21.434,21.434,0,0,0,.03751,12.19113,22.86219,22.86219,0,0,0,6.19961-10.357,22.59026,22.59026,0,0,0,.68686-3.566A22.91246,22.91246,0,0,0,244.00971,361.56071Z" transform="translate(-13.39593 -14.93062)"/><path class="cls-2" d="M264.7333,235.21521a21.472,21.472,0,0,0-2.55775,5.82079,21.1307,21.1307,0,0,0-.74438,5.48887,21.434,21.434,0,0,0,3.45559,11.69119,22.8623,22.8623,0,0,0,3.0456-11.68022,22.58977,22.58977,0,0,0-.341-3.61552A22.91243,22.91243,0,0,0,264.7333,235.21521Z" transform="translate(-13.39593 -14.93062)"/><path class="cls-2" d="M234.85138,260.58131a21.47177,21.47177,0,0,0,6.34378.42451,21.13065,21.13065,0,0,0,5.41463-1.16771,21.43394,21.43394,0,0,0,9.81774-7.22751,22.86224,22.86224,0,0,0-12.01956,1.11052,22.59059,22.59059,0,0,0-3.28376,1.55087A22.91247,22.91247,0,0,0,234.85138,260.58131Z" transform="translate(-13.39593 -14.93062)"/><path class="cls-2" d="M235.39629,229.76851a21.47176,21.47176,0,0,0,1.686,6.13036,21.13041,21.13041,0,0,0,2.88391,4.72914,21.434,21.434,0,0,0,10.0549,6.89377,22.86225,22.86225,0,0,0-5.00266-10.98529,22.59034,22.59034,0,0,0-2.54479-2.59082A22.91243,22.91243,0,0,0,235.39629,229.76851Z" transform="translate(-13.39593 -14.93062)"/><path class="cls-2" d="M219.9443,264.12925a21.47165,21.47165,0,0,0,5.83362-2.52836,21.13084,21.13084,0,0,0,4.27837-3.51815,21.43393,21.43393,0,0,0,5.41677-10.9217,22.86238,22.86238,0,0,0-10.17588,6.49265,22.59,22.59,0,0,0-2.20867,2.88272A22.91249,22.91249,0,0,0,219.9443,264.12925Z" transform="translate(-13.39593 -14.93062)"/><path class="cls-2" d="M208.75809,237.13086a21.47183,21.47183,0,0,0,4.73258,4.24575,21.131,21.131,0,0,0,4.98284,2.41933,21.434,21.434,0,0,0,12.18576.3635,22.86224,22.86224,0,0,0-10.1475-6.53692,22.58941,22.58941,0,0,0-3.5415-.80378A22.91248,22.91248,0,0,0,208.75809,237.13086Z" transform="translate(-13.39593 -14.93062)"/><path class="cls-2" d="M206.12792,269.30746a21.4719,21.4719,0,0,0,4.65887-4.32651,21.13052,21.13052,0,0,0,2.86279-4.742,21.43394,21.43394,0,0,0,1.47109-12.1021,22.86228,22.86228,0,0,0-7.43337,9.51042,22.58927,22.58927,0,0,0-1.12277,3.45365A22.9124,22.9124,0,0,0,206.12792,269.30746Z" transform="translate(-13.39593 -14.93062)"/><path class="cls-2" d="M184.78778,265.62972a21.47167,21.47167,0,0,0,6.31058-.77476,21.13054,21.13054,0,0,0,5.09887-2.16408,21.434,21.434,0,0,0,8.28524-8.94314,22.86225,22.86225,0,0,0-11.597,3.34867,22.59033,22.59033,0,0,0-2.934,2.14013A22.91227,22.91227,0,0,0,184.78778,265.62972Z" transform="translate(-13.39593 -14.93062)"/><path class="cls-2" d="M202.26274,294.88713a21.47144,21.47144,0,0,0,1.19971-6.24376,21.131,21.131,0,0,0-.49449-5.517,21.43408,21.43408,0,0,0-5.96822-10.6304,22.86234,22.86234,0,0,0-.37272,12.065,22.58983,22.58983,0,0,0,1.13623,3.44924A22.91243,22.91243,0,0,0,202.26274,294.88713Z" transform="translate(-13.39593 -14.93062)"/><path class="cls-2" d="M175.36276,296.54144a21.47159,21.47159,0,0,0,5.99116-2.12832,21.13065,21.13065,0,0,0,4.50636-3.22094,21.434,21.434,0,0,0,6.14253-10.53064,22.86227,22.86227,0,0,0-10.59142,5.79007,22.58892,22.58892,0,0,0-2.39844,2.72685A22.9124,22.9124,0,0,0,175.36276,296.54144Z" transform="translate(-13.39593 -14.93062)"/><path class="cls-2" d="M200.534,316.50244a21.47211,21.47211,0,0,0-.71736-6.31737,21.131,21.131,0,0,0-2.11764-5.11834,21.434,21.434,0,0,0-8.86747-8.36618,22.86241,22.86241,0,0,0,3.24312,11.62692,22.59084,22.59084,0,0,0,2.11338,2.95329A22.91261,22.91261,0,0,0,200.534,316.50244Z" transform="translate(-13.39593 -14.93062)"/><path class="cls-2" d="M169.36276,320.54144a21.47159,21.47159,0,0,0,5.99116-2.12832,21.13065,21.13065,0,0,0,4.50636-3.22094,21.434,21.434,0,0,0,6.14253-10.53064,22.86227,22.86227,0,0,0-10.59142,5.79007,22.58892,22.58892,0,0,0-2.39844,2.72685A22.9124,22.9124,0,0,0,169.36276,320.54144Z" transform="translate(-13.39593 -14.93062)"/><path class="cls-2" d="M199.08507,336.77712a21.47145,21.47145,0,0,0-1.06849-6.26754,21.13083,21.13083,0,0,0-2.39974-4.99229,21.434,21.434,0,0,0-9.32016-7.85874,22.86233,22.86233,0,0,0,3.88638,11.428,22.58918,22.58918,0,0,0,2.27476,2.83086A22.91242,22.91242,0,0,0,199.08507,336.77712Z" transform="translate(-13.39593 -14.93062)"/><path class="cls-2" d="M170.02249,345.0902a21.47189,21.47189,0,0,0,5.51795-3.15848,21.131,21.131,0,0,0,3.86269-3.97006,21.434,21.434,0,0,0,4.1747-11.45412,22.86233,22.86233,0,0,0-9.39477,7.579,22.59,22.59,0,0,0-1.876,3.10947A22.91244,22.91244,0,0,0,170.02249,345.0902Z" transform="translate(-13.39593 -14.93062)"/><path class="cls-2" d="M203.547,351.92637a21.47192,21.47192,0,0,0-3.13966-5.52868,21.13086,21.13086,0,0,0-3.95686-3.87621,21.434,21.434,0,0,0-11.43983-4.21372,22.86238,22.86238,0,0,0,7.547,9.42056,22.5894,22.5894,0,0,0,3.103,1.88662A22.91242,22.91242,0,0,0,203.547,351.92637Z" transform="translate(-13.39593 -14.93062)"/><path class="cls-2" d="M192.32754,371.25279a21.472,21.472,0,0,0,.97285-6.2831,21.1306,21.1306,0,0,0-.69391-5.49547,21.434,21.434,0,0,0-6.34919-10.40734,22.86221,22.86221,0,0,0,.06435,12.07058,22.59014,22.59014,0,0,0,1.26036,3.40584A22.9123,22.9123,0,0,0,192.32754,371.25279Z" transform="translate(-13.39593 -14.93062)"/><path class="cls-2" d="M258.96248,214.73862a21.472,21.472,0,0,0,.70408,6.31887,21.13072,21.13072,0,0,0,2.10688,5.12277,21.434,21.434,0,0,0,8.84986,8.38481,22.86236,22.86236,0,0,0-3.21867-11.63372,22.59091,22.59091,0,0,0-2.10716-2.95772A22.91258,22.91258,0,0,0,258.96248,214.73862Z" transform="translate(-13.39593 -14.93062)"/><path class="cls-2" d="M235.72078,224.5281a21.47173,21.47173,0,0,0,4.88221,4.07282,21.13107,21.13107,0,0,0,5.06661,2.23857,21.434,21.434,0,0,0,12.191-.075,22.86242,22.86242,0,0,0-10.376-6.16777,22.58934,22.58934,0,0,0-3.56812-.6759A22.91248,22.91248,0,0,0,235.72078,224.5281Z" transform="translate(-13.39593 -14.93062)"/><path class="cls-2" d="M235.54989,203.04935a21.47182,21.47182,0,0,0,1.00846,6.27748,21.131,21.131,0,0,0,2.35186,5.015,21.434,21.434,0,0,0,9.24452,7.94756,22.86222,22.86222,0,0,0-3.77683-11.46467,22.58931,22.58931,0,0,0-2.24757-2.85249A22.91236,22.91236,0,0,0,235.54989,203.04935Z" transform="translate(-13.39593 -14.93062)"/><path class="cls-2" d="M212.12559,227.346a21.472,21.472,0,0,0,6.34883-.34089,21.1308,21.1308,0,0,0,5.23507-1.80991,21.43392,21.43392,0,0,0,8.87808-8.35491,22.86235,22.86235,0,0,0-11.799,2.54683,22.59075,22.59075,0,0,0-3.0736,1.93424A22.91254,22.91254,0,0,0,212.12559,227.346Z" transform="translate(-13.39593 -14.93062)"/><path class="cls-2" d="M202.03323,204.93668a21.47159,21.47159,0,0,0,4.74743,4.22915,21.13057,21.13057,0,0,0,4.99127,2.40185,21.434,21.434,0,0,0,12.187.32082,22.86234,22.86234,0,0,0-10.17034-6.50134,22.58945,22.58945,0,0,0-3.54429-.79136A22.91226,22.91226,0,0,0,202.03323,204.93668Z" transform="translate(-13.39593 -14.93062)"/><path class="cls-2" d="M201.39061,242.1357a21.47145,21.47145,0,0,0,3.78788-5.10644,21.13017,21.13017,0,0,0,1.9461-5.186,21.434,21.434,0,0,0-.76978-12.16686,22.86235,22.86235,0,0,0-5.56625,10.71074,22.58982,22.58982,0,0,0-.4714,3.60084A22.91242,22.91242,0,0,0,201.39061,242.1357Z" transform="translate(-13.39593 -14.93062)"/><path class="cls-2" d="M176.05944,227.36278a21.47188,21.47188,0,0,0,6.273,1.03592,21.13126,21.13126,0,0,0,5.50217-.63869,21.434,21.434,0,0,0,10.47058-6.24434,22.86228,22.86228,0,0,0-12.07062-.05689,22.58955,22.58955,0,0,0-3.41833,1.2261A22.91212,22.91212,0,0,0,176.05944,227.36278Z" transform="translate(-13.39593 -14.93062)"/><path class="cls-2" d="M188.60921,253.41388a21.4721,21.4721,0,0,0,3.64653-5.20833,21.131,21.131,0,0,0,1.80325-5.23736,21.4341,21.4341,0,0,0-1.10292-12.1412,22.86228,22.86228,0,0,0-5.27064,10.85926,22.59023,22.59023,0,0,0-.37255,3.61241A22.91261,22.91261,0,0,0,188.60921,253.41388Z" transform="translate(-13.39593 -14.93062)"/><path class="cls-2" d="M162.17727,248.35334a21.47135,21.47135,0,0,0,6.35406.22273,21.13079,21.13079,0,0,0,5.37479-1.33916,21.434,21.434,0,0,0,9.58314-7.53581,22.86231,22.86231,0,0,0-11.97821,1.49186,22.59078,22.59078,0,0,0-3.23282,1.65443A22.91234,22.91234,0,0,0,162.17727,248.35334Z" transform="translate(-13.39593 -14.93062)"/><path class="cls-2" d="M178.95308,276.51273a21.47175,21.47175,0,0,0,1.98708-6.03948,21.13012,21.13012,0,0,0,.214-5.535,21.4339,21.4339,0,0,0-4.56209-11.30541,22.86229,22.86229,0,0,0-1.91012,11.91866,22.58794,22.58794,0,0,0,.68653,3.56608A22.91207,22.91207,0,0,0,178.95308,276.51273Z" transform="translate(-13.39593 -14.93062)"/><path class="cls-2" d="M152.792,272.0813a21.47148,21.47148,0,0,0,6.16648-1.54864,21.13069,21.13069,0,0,0,4.79237-2.77758,21.43392,21.43392,0,0,0,7.11659-9.89843,22.86215,22.86215,0,0,0-11.09426,4.75608,22.58956,22.58956,0,0,0-2.647,2.48629A22.91229,22.91229,0,0,0,152.792,272.0813Z" transform="translate(-13.39593 -14.93062)"/><path class="cls-2" d="M167.74218,294.46932a21.472,21.472,0,0,0,2.64064-5.78366,21.13106,21.13106,0,0,0,.82272-5.47767,21.43408,21.43408,0,0,0-3.28823-11.73936,22.86228,22.86228,0,0,0-3.21215,11.63551,22.59044,22.59044,0,0,0,.2893,3.62A22.9123,22.9123,0,0,0,167.74218,294.46932Z" transform="translate(-13.39593 -14.93062)"/><path class="cls-2" d="M144.792,296.0813a21.47148,21.47148,0,0,0,6.16648-1.54864,21.13069,21.13069,0,0,0,4.79237-2.77758,21.43392,21.43392,0,0,0,7.11659-9.89843,22.86215,22.86215,0,0,0-11.09426,4.75608,22.58956,22.58956,0,0,0-2.647,2.48629A22.91229,22.91229,0,0,0,144.792,296.0813Z" transform="translate(-13.39593 -14.93062)"/><path class="cls-2" d="M164.555,320.3395a21.4716,21.4716,0,0,0,1.69651-6.12745,21.13125,21.13125,0,0,0-.05051-5.53887,21.434,21.434,0,0,0-5.0966-11.07474,22.86234,22.86234,0,0,0-1.339,11.99627,22.58977,22.58977,0,0,0,.856,3.52924A22.91235,22.91235,0,0,0,164.555,320.3395Z" transform="translate(-13.39593 -14.93062)"/><path class="cls-2" d="M260.29513,199.14158a21.472,21.472,0,0,0,6.25556-1.13654,21.131,21.131,0,0,0,4.96592-2.45385,21.4341,21.4341,0,0,0,7.757-9.405,22.86231,22.86231,0,0,0-11.38509,4.01034,22.58984,22.58984,0,0,0-2.806,2.30538A22.9122,22.9122,0,0,0,260.29513,199.14158Z" transform="translate(-13.39593 -14.93062)"/><path class="cls-2" d="M253.29513,171.14618a21.47161,21.47161,0,0,0,3.32156,5.42134,21.13052,21.13052,0,0,0,4.08343,3.74264,21.434,21.434,0,0,0,11.57347,3.83142,22.86223,22.86223,0,0,0-7.85568-9.16468,22.59029,22.59029,0,0,0-3.164-1.78252A22.91241,22.91241,0,0,0,253.29513,171.14618Z" transform="translate(-13.39593 -14.93062)"/><path class="cls-2" d="M237.18245,196.97389a21.47184,21.47184,0,0,0,6.27456-1.02648,21.13136,21.13136,0,0,0,5.00826-2.36624,21.43394,21.43394,0,0,0,7.921-9.2673,22.86229,22.86229,0,0,0-11.45378,3.80973,22.58971,22.58971,0,0,0-2.846,2.25574A22.91262,22.91262,0,0,0,237.18245,196.97389Z" transform="translate(-13.39593 -14.93062)"/><path class="cls-2" d="M224.98431,174.69109a21.47174,21.47174,0,0,0,4.55761,4.43305,21.1308,21.1308,0,0,0,4.88128,2.61818,21.43406,21.43406,0,0,0,12.16121.85435,22.86234,22.86234,0,0,0-9.87579-6.9406,22.58925,22.58925,0,0,0-3.50623-.94586A22.91238,22.91238,0,0,0,224.98431,174.69109Z" transform="translate(-13.39593 -14.93062)"/><path class="cls-2" d="M210.2455,199.18711a21.472,21.472,0,0,0,6.25379-1.14624,21.131,21.131,0,0,0,4.96211-2.46156,21.43392,21.43392,0,0,0,7.74238-9.417,22.86235,22.86235,0,0,0-11.37886,4.028A22.589,22.589,0,0,0,215.02254,192.5,22.91233,22.91233,0,0,0,210.2455,199.18711Z" transform="translate(-13.39593 -14.93062)"/><path class="cls-2" d="M192.937,177.68823a21.47149,21.47149,0,0,0,4.54376,4.44725,21.13086,21.13086,0,0,0,4.87308,2.6334,21.43406,21.43406,0,0,0,12.15849.89228,22.86233,22.86233,0,0,0-9.85409-6.97137,22.58931,22.58931,0,0,0-3.50326-.9568A22.91254,22.91254,0,0,0,192.937,177.68823Z" transform="translate(-13.39593 -14.93062)"/><path class="cls-2" d="M186.64971,208.84608a21.47178,21.47178,0,0,0,5.59452-3.02076,21.1307,21.1307,0,0,0,3.95991-3.87311,21.434,21.434,0,0,0,4.45728-11.34713,22.86228,22.86228,0,0,0-9.57971,7.34384,22.58959,22.58959,0,0,0-1.95253,3.062A22.91207,22.91207,0,0,0,186.64971,208.84608Z" transform="translate(-13.39593 -14.93062)"/><path class="cls-2" d="M168.06327,184.24575a21.47146,21.47146,0,0,0,4.33378,4.65211,21.13089,21.13089,0,0,0,4.74643,2.85538,21.43393,21.43393,0,0,0,12.10438,1.45216,22.86218,22.86218,0,0,0-9.522-7.41849,22.58928,22.58928,0,0,0-3.45539-1.11737A22.91236,22.91236,0,0,0,168.06327,184.24575Z" transform="translate(-13.39593 -14.93062)"/><path class="cls-2" d="M170.97854,221.704a21.47214,21.47214,0,0,0,4.29115-4.69146,21.13092,21.13092,0,0,0,2.46721-4.9593,21.434,21.434,0,0,0,.48087-12.1817,22.86245,22.86245,0,0,0-6.63437,10.08406,22.5893,22.5893,0,0,0-.83785,3.53359A22.91231,22.91231,0,0,0,170.97854,221.704Z" transform="translate(-13.39593 -14.93062)"/><path class="cls-2" d="M143.155,204.6a21.47165,21.47165,0,0,0,5.7786,2.65172,21.13113,21.13113,0,0,0,5.47608.8332,21.43405,21.43405,0,0,0,11.74564-3.26575,22.86226,22.86226,0,0,0-11.62935-3.23441,22.59,22.59,0,0,0-3.62057.28236A22.91262,22.91262,0,0,0,143.155,204.6Z" transform="translate(-13.39593 -14.93062)"/><path class="cls-2" d="M156.5042,236.28169a21.47156,21.47156,0,0,0,3.103-5.54932,21.13048,21.13048,0,0,0,1.26622-5.39244,21.43411,21.43411,0,0,0-2.321-11.96822,22.86237,22.86237,0,0,0-4.14934,11.33518,22.58868,22.58868,0,0,0-.00656,3.63156A22.91225,22.91225,0,0,0,156.5042,236.28169Z" transform="translate(-13.39593 -14.93062)"/><path class="cls-2" d="M126.24413,222.37406a21.4718,21.4718,0,0,0,6.11877,1.72754,21.13125,21.13125,0,0,0,5.53907-.02244,21.43407,21.43407,0,0,0,11.10042-5.04041,22.86229,22.86229,0,0,0-11.98932-1.39974,22.58937,22.58937,0,0,0-3.53354.83809A22.91236,22.91236,0,0,0,126.24413,222.37406Z" transform="translate(-13.39593 -14.93062)"/><path class="cls-2" d="M143.9507,227.46305a21.47159,21.47159,0,0,0-1.66113,6.13713,21.13073,21.13073,0,0,0,.08246,5.5385,21.434,21.434,0,0,0,5.1604,11.04514A22.86227,22.86227,0,0,0,148.80217,238.18a22.591,22.591,0,0,0-.87633-3.52425A22.91247,22.91247,0,0,0,143.9507,227.46305Z" transform="translate(-13.39593 -14.93062)"/><path class="cls-2" d="M134.59117,233.41811a21.47178,21.47178,0,0,0-6.31986-.69514,21.13093,21.13093,0,0,0-5.45957.93533,21.43407,21.43407,0,0,0-10.11755,6.80148,22.86228,22.86228,0,0,0,12.056-.596,22.58938,22.58938,0,0,0,3.347-1.40917A22.91254,22.91254,0,0,0,134.59117,233.41811Z" transform="translate(-13.39593 -14.93062)"/><path class="cls-2" d="M138.01622,263.462a21.47175,21.47175,0,0,0,.14339-6.35635,21.13061,21.13061,0,0,0-1.40615-5.35766,21.434,21.434,0,0,0-7.65484-9.48832,22.86219,22.86219,0,0,0,1.64127,11.95865,22.58991,22.58991,0,0,0,1.69465,3.21192A22.9124,22.9124,0,0,0,138.01622,263.462Z" transform="translate(-13.39593 -14.93062)"/><path class="cls-2" d="M102.04,258.31955a21.47183,21.47183,0,0,0,6.35705.108,21.13064,21.13064,0,0,0,5.34974-1.436,21.434,21.434,0,0,0,9.44553-7.7076,22.86236,22.86236,0,0,0-11.94932,1.70788,22.58957,22.58957,0,0,0-3.20243,1.71253A22.91235,22.91235,0,0,0,102.04,258.31955Z" transform="translate(-13.39593 -14.93062)"/><path class="cls-2" d="M132.96228,278.42336a21.47192,21.47192,0,0,0-1.07381-6.26663,21.13051,21.13051,0,0,0-2.404-4.99026,21.43408,21.43408,0,0,0-9.32681-7.85083,22.8623,22.8623,0,0,0,3.89606,11.4247,22.58832,22.58832,0,0,0,2.27716,2.82893A22.91223,22.91223,0,0,0,132.96228,278.42336Z" transform="translate(-13.39593 -14.93062)"/><path class="cls-2" d="M95.88506,279.08735a21.4716,21.4716,0,0,0,6.28608-.9534,21.13066,21.13066,0,0,0,5.03546-2.3078,21.434,21.434,0,0,0,8.0283-9.17449,22.86229,22.86229,0,0,0-11.49734,3.67618,22.59036,22.59036,0,0,0-2.87209,2.22247A22.9124,22.9124,0,0,0,95.88506,279.08735Z" transform="translate(-13.39593 -14.93062)"/><path class="cls-2" d="M116.33742,277.99855a21.47156,21.47156,0,0,0,3.10272,5.54949,21.13111,21.13111,0,0,0,3.93093,3.90251,21.434,21.434,0,0,0,11.41147,4.2899,22.8622,22.8622,0,0,0-7.484-9.47066,22.5897,22.5897,0,0,0-3.0904-1.90728A22.91246,22.91246,0,0,0,116.33742,277.99855Z" transform="translate(-13.39593 -14.93062)"/><path class="cls-2" d="M115.13838,286.504a21.472,21.472,0,0,0-6.27072,1.04971,21.13094,21.13094,0,0,0-4.99946,2.38478,21.43411,21.43411,0,0,0-7.88662,9.29657,22.8624,22.8624,0,0,0,11.4396-3.85212,22.59109,22.59109,0,0,0,2.83766-2.26627A22.91243,22.91243,0,0,0,115.13838,286.504Z" transform="translate(-13.39593 -14.93062)"/><path class="cls-2" d="M117.33831,295.99736a21.47171,21.47171,0,0,0,3.102,5.54989,21.13072,21.13072,0,0,0,3.93043,3.903,21.434,21.434,0,0,0,11.41091,4.29139,22.86219,22.86219,0,0,0-7.48273-9.47164,22.58909,22.58909,0,0,0-3.09015-1.90767A22.91227,22.91227,0,0,0,117.33831,295.99736Z" transform="translate(-13.39593 -14.93062)"/><path class="cls-2" d="M117.71766,304.86766a21.47169,21.47169,0,0,0-5.64435,2.9266,21.131,21.131,0,0,0-4.02424,3.80622,21.434,21.434,0,0,0-4.64677,11.27087,22.86231,22.86231,0,0,0,9.70141-7.18232,22.58923,22.58923,0,0,0,2.00356-3.02887A22.91252,22.91252,0,0,0,117.71766,304.86766Z" transform="translate(-13.39593 -14.93062)"/><path class="cls-2" d="M120.426,316.98863a21.472,21.472,0,0,0,4.96815,3.96753,21.131,21.131,0,0,0,5.11331,2.12975,21.43405,21.43405,0,0,0,12.18656-.33554,22.86223,22.86223,0,0,0-10.50549-5.94456,22.58893,22.58893,0,0,0-3.58174-.59947A22.91255,22.91255,0,0,0,120.426,316.98863Z" transform="translate(-13.39593 -14.93062)"/><path class="cls-2" d="M120.36183,326.94778a21.47193,21.47193,0,0,0-6.348-.35629,21.13089,21.13089,0,0,0-5.40177,1.22584A21.434,21.434,0,0,0,98.87261,335.15a22.86239,22.86239,0,0,0,12.00693-1.23966,22.58961,22.58961,0,0,0,3.2669-1.58609A22.91233,22.91233,0,0,0,120.36183,326.94778Z" transform="translate(-13.39593 -14.93062)"/><path class="cls-2" d="M144.92321,337.94642a21.472,21.472,0,0,0-5.29265-3.523,21.13062,21.13062,0,0,0-5.27834-1.67956,21.434,21.434,0,0,0-12.11189,1.38819,22.86235,22.86235,0,0,0,10.98023,5.01376,22.59037,22.59037,0,0,0,3.62017.28747A22.91238,22.91238,0,0,0,144.92321,337.94642Z" transform="translate(-13.39593 -14.93062)"/><path class="cls-2" d="M121.235,341.63687a21.4718,21.4718,0,0,0-6.27009,1.05346,21.13075,21.13075,0,0,0-4.998,2.38775,21.43405,21.43405,0,0,0-7.88107,9.30128,22.86219,22.86219,0,0,0,11.43729-3.85895,22.59014,22.59014,0,0,0,2.83631-2.268A22.91249,22.91249,0,0,0,121.235,341.63687Z" transform="translate(-13.39593 -14.93062)"/><path class="cls-2" d="M136.746,368.06677a21.47178,21.47178,0,0,0-1.53045-6.171,21.1314,21.1314,0,0,0-2.76344-4.80054,21.434,21.434,0,0,0-9.87742-7.14574,22.86232,22.86232,0,0,0,4.72336,11.10824,22.58876,22.58876,0,0,0,2.47848,2.65432A22.91241,22.91241,0,0,0,136.746,368.06677Z" transform="translate(-13.39593 -14.93062)"/><path class="cls-2" d="M108.61872,380.794a21.472,21.472,0,0,0,5.25819-3.57424,21.131,21.131,0,0,0,3.54533-4.25586,21.43393,21.43393,0,0,0,3.27979-11.74172,22.86224,22.86224,0,0,0-8.7829,8.28032,22.589,22.589,0,0,0-1.63089,3.24476A22.91214,22.91214,0,0,0,108.61872,380.794Z" transform="translate(-13.39593 -14.93062)"/><path class="cls-2" d="M337.99457,272.21749a21.47186,21.47186,0,0,0,2.037,6.02281,21.1313,21.1313,0,0,0,3.15211,4.55478,21.434,21.434,0,0,0,10.43609,6.30182,22.86232,22.86232,0,0,0-5.62847-10.67817,22.58935,22.58935,0,0,0-2.6901-2.4396A22.91246,22.91246,0,0,0,337.99457,272.21749Z" transform="translate(-13.39593 -14.93062)"/><path class="cls-2" d="M349.84345,248.31787a21.4717,21.4717,0,0,0-4.87578,4.0805,21.13078,21.13078,0,0,0-3.10352,4.588,21.43391,21.43391,0,0,0-2.09322,12.01014,22.8623,22.8623,0,0,0,7.91392-9.11445,22.5885,22.5885,0,0,0,1.29937-3.39114A22.91226,22.91226,0,0,0,349.84345,248.31787Z" transform="translate(-13.39593 -14.93062)"/><path class="cls-2" d="M364.42253,283.69157a21.472,21.472,0,0,0-.60608-6.329,21.13062,21.13062,0,0,0-2.02725-5.15481,21.434,21.434,0,0,0-8.71886-8.52093,22.86228,22.86228,0,0,0,3.038,11.68219,22.58918,22.58918,0,0,0,2.06108,2.99A22.9122,22.9122,0,0,0,364.42253,283.69157Z" transform="translate(-13.39593 -14.93062)"/><path class="cls-2" d="M382.11844,266.45211A21.47151,21.47151,0,0,0,376.778,263.002a21.13046,21.13046,0,0,0-5.30085-1.60706,21.434,21.434,0,0,0-12.09173,1.55406,22.86227,22.86227,0,0,0,11.04791,4.8628,22.58991,22.58991,0,0,0,3.62377.23782A22.91253,22.91253,0,0,0,382.11844,266.45211Z" transform="translate(-13.39593 -14.93062)"/><path class="cls-2" d="M394.11844,280.45211A21.47151,21.47151,0,0,0,388.778,277.002a21.13046,21.13046,0,0,0-5.30085-1.60706,21.434,21.434,0,0,0-12.09173,1.55406,22.86227,22.86227,0,0,0,11.04791,4.8628,22.58991,22.58991,0,0,0,3.62377.23782A22.91253,22.91253,0,0,0,394.11844,280.45211Z" transform="translate(-13.39593 -14.93062)"/><path class="cls-2" d="M372.67552,282.75351a21.47175,21.47175,0,0,0-4.372,4.61618,21.13063,21.13063,0,0,0-2.553,4.91567,21.434,21.434,0,0,0-.6925,12.1715,22.86238,22.86238,0,0,0,6.80862-9.96724,22.58992,22.58992,0,0,0,.89914-3.5185A22.91242,22.91242,0,0,0,372.67552,282.75351Z" transform="translate(-13.39593 -14.93062)"/><path class="cls-2" d="M378.697,291.03748a21.47179,21.47179,0,0,0,3.85942,5.05258,21.131,21.131,0,0,0,4.44533,3.30468,21.4339,21.4339,0,0,0,11.90505,2.62574,22.86226,22.86226,0,0,0-8.75313-8.31178,22.58907,22.58907,0,0,0-3.32995-1.449A22.91235,22.91235,0,0,0,378.697,291.03748Z" transform="translate(-13.39593 -14.93062)"/><path class="cls-2" d="M365.71733,317.62341a21.47152,21.47152,0,0,0,5.61342-2.9855,21.13082,21.13082,0,0,0,3.98419-3.84811,21.43394,21.43394,0,0,0,4.52859-11.31888,22.86236,22.86236,0,0,0-9.62573,7.28344,22.58957,22.58957,0,0,0-1.97175,3.04966A22.91242,22.91242,0,0,0,365.71733,317.62341Z" transform="translate(-13.39593 -14.93062)"/><path class="cls-2" d="M367.71733,332.62341a21.47152,21.47152,0,0,0,5.61342-2.9855,21.13082,21.13082,0,0,0,3.98419-3.84811,21.43394,21.43394,0,0,0,4.52859-11.31888,22.86236,22.86236,0,0,0-9.62573,7.28344,22.58957,22.58957,0,0,0-1.97175,3.04966A22.91242,22.91242,0,0,0,367.71733,332.62341Z" transform="translate(-13.39593 -14.93062)"/><path class="cls-2" d="M398.87327,324.71855a21.47161,21.47161,0,0,0-2.239-5.95067,21.13059,21.13059,0,0,0-3.30394-4.44586,21.43406,21.43406,0,0,0-10.64271-5.94624A22.86228,22.86228,0,0,0,388.673,318.858a22.58973,22.58973,0,0,0,2.77086,2.34747A22.91229,22.91229,0,0,0,398.87327,324.71855Z" transform="translate(-13.39593 -14.93062)"/><path class="cls-2" d="M370.87327,254.71855a21.47161,21.47161,0,0,0-2.239-5.95067,21.13059,21.13059,0,0,0-3.30394-4.44586,21.43406,21.43406,0,0,0-10.64271-5.94624A22.86228,22.86228,0,0,0,360.673,248.858a22.58973,22.58973,0,0,0,2.77086,2.34747A22.91229,22.91229,0,0,0,370.87327,254.71855Z" transform="translate(-13.39593 -14.93062)"/><path class="cls-2" d="M296.87327,282.71855a21.47161,21.47161,0,0,0-2.239-5.95067,21.13059,21.13059,0,0,0-3.30394-4.44586,21.43406,21.43406,0,0,0-10.64271-5.94624A22.86228,22.86228,0,0,0,286.673,276.858a22.58973,22.58973,0,0,0,2.77086,2.34747A22.91229,22.91229,0,0,0,296.87327,282.71855Z" transform="translate(-13.39593 -14.93062)"/><path class="cls-2" d="M294.16823,269.58553a21.4715,21.4715,0,0,0,5.09847-3.79859,21.13058,21.13058,0,0,0,3.35771-4.4054,21.434,21.434,0,0,0,2.76822-11.87274,22.86236,22.86236,0,0,0-8.41608,8.6529,22.59023,22.59023,0,0,0-1.48884,3.31235A22.91243,22.91243,0,0,0,294.16823,269.58553Z" transform="translate(-13.39593 -14.93062)"/><path class="cls-2" d="M290.791,260.72836a21.47218,21.47218,0,0,0-2.92234-5.64657,21.13083,21.13083,0,0,0-3.80316-4.02711,21.434,21.434,0,0,0-11.26735-4.65531,22.86223,22.86223,0,0,0,7.175,9.70685,22.59035,22.59035,0,0,0,3.02735,2.00585A22.91226,22.91226,0,0,0,290.791,260.72836Z" transform="translate(-13.39593 -14.93062)"/><path class="cls-2" d="M278.55453,234.54792a21.47166,21.47166,0,0,0,5.8494-2.49164,21.131,21.131,0,0,0,4.3004-3.49117,21.434,21.434,0,0,0,5.48533-10.88743,22.86225,22.86225,0,0,0-10.2165,6.42854,22.58873,22.58873,0,0,0-2.22674,2.86878A22.91235,22.91235,0,0,0,278.55453,234.54792Z" transform="translate(-13.39593 -14.93062)"/><path class="cls-2" d="M278.55145,218.2531a21.47147,21.47147,0,0,0-2.642-5.783,21.131,21.131,0,0,0-3.60119-4.2087,21.434,21.434,0,0,0-11.0256-5.202,22.86226,22.86226,0,0,0,6.69052,10.04689,22.58891,22.58891,0,0,0,2.92539,2.15183A22.91248,22.91248,0,0,0,278.55145,218.2531Z" transform="translate(-13.39593 -14.93062)"/><path class="cls-2" d="M307.67632,205.42184a21.47183,21.47183,0,0,0-5.98019-2.159,21.13076,21.13076,0,0,0-5.52659-.37214,21.43409,21.43409,0,0,0-11.43124,4.237,22.86216,22.86216,0,0,0,11.85918,2.25014,22.58862,22.58862,0,0,0,3.58425-.58428A22.91224,22.91224,0,0,0,307.67632,205.42184Z" transform="translate(-13.39593 -14.93062)"/><path class="cls-2" d="M307.41639,173.56294a21.47161,21.47161,0,0,0-5.12889,3.75742,21.13077,21.13077,0,0,0-3.39307,4.37822,21.434,21.434,0,0,0-2.86373,11.85007,22.86242,22.86242,0,0,0,8.48548-8.58486,22.5897,22.5897,0,0,0,1.51546-3.30025A22.91238,22.91238,0,0,0,307.41639,173.56294Z" transform="translate(-13.39593 -14.93062)"/><path class="cls-2" d="M303.33541,191.66345a21.47151,21.47151,0,0,0,2.44877,5.86748,21.13106,21.13106,0,0,0,3.45961,4.32583,21.434,21.434,0,0,0,10.847,5.56485,22.86226,22.86226,0,0,0-6.35361-10.26327,22.59052,22.59052,0,0,0-2.85241-2.24767A22.91239,22.91239,0,0,0,303.33541,191.66345Z" transform="translate(-13.39593 -14.93062)"/><path class="cls-2" d="M321.68568,185.80776a21.47189,21.47189,0,0,0,6.302.84194,21.13082,21.13082,0,0,0,5.47985-.80808,21.434,21.434,0,0,0,10.273-6.56432,22.86238,22.86238,0,0,0-12.06664.31544,22.58947,22.58947,0,0,0-3.37888,1.33094A22.91238,22.91238,0,0,0,321.68568,185.80776Z" transform="translate(-13.39593 -14.93062)"/><path class="cls-2" d="M323.65281,209.80162a21.47175,21.47175,0,0,0,5.90685-2.35221,21.131,21.131,0,0,0,4.382-3.38821,21.434,21.434,0,0,0,5.742-10.75428,22.86239,22.86239,0,0,0-10.36609,6.18444,22.59008,22.59008,0,0,0-2.29415,2.81517A22.91246,22.91246,0,0,0,323.65281,209.80162Z" transform="translate(-13.39593 -14.93062)"/><path class="cls-2" d="M360.45214,209.97778a21.47166,21.47166,0,0,0-2.75662-5.7293,21.13115,21.13115,0,0,0-3.68424-4.13619,21.43406,21.43406,0,0,0-11.127-4.98153,22.86231,22.86231,0,0,0,6.88918,9.91173,22.59043,22.59043,0,0,0,2.96764,2.09318A22.91257,22.91257,0,0,0,360.45214,209.97778Z" transform="translate(-13.39593 -14.93062)"/><path class="cls-2" d="M340.59728,211.97356a21.47182,21.47182,0,0,0-6.32357-.66053,21.13056,21.13056,0,0,0-5.45436.96519,21.43391,21.43391,0,0,0-10.08017,6.85676,22.86228,22.86228,0,0,0,12.05258-.662,22.59052,22.59052,0,0,0,3.33926-1.42747A22.91248,22.91248,0,0,0,340.59728,211.97356Z" transform="translate(-13.39593 -14.93062)"/><path class="cls-2" d="M340.695,217.99543a21.47179,21.47179,0,0,0-2.56963,5.81556,21.1309,21.1309,0,0,0-.75558,5.48733,21.434,21.434,0,0,0,3.43172,11.69822,22.86223,22.86223,0,0,0,3.06943-11.674,22.588,22.588,0,0,0-.3336-3.61622A22.91234,22.91234,0,0,0,340.695,217.99543Z" transform="translate(-13.39593 -14.93062)"/><path class="cls-2" d="M325.43354,230.5772a21.47152,21.47152,0,0,0-6.34578-.39342,21.13059,21.13059,0,0,0-5.40884,1.19422,21.434,21.434,0,0,0-9.78221,7.27553,22.86218,22.86218,0,0,0,12.014-1.1694,22.58894,22.58894,0,0,0,3.27612-1.56694A22.91239,22.91239,0,0,0,325.43354,230.5772Z" transform="translate(-13.39593 -14.93062)"/><path class="cls-2" d="M311.19071,252.33784a21.472,21.472,0,0,0-1.24756,6.23437,21.131,21.131,0,0,0,.45216,5.52063,21.434,21.434,0,0,0,5.88652,10.67585,22.8623,22.8623,0,0,0,.46524-12.06178,22.58988,22.58988,0,0,0-1.10974-3.45786A22.91234,22.91234,0,0,0,311.19071,252.33784Z" transform="translate(-13.39593 -14.93062)"/><path class="cls-2" d="M343.49626,250.68808a21.47186,21.47186,0,0,0-6.30862.7906,21.1306,21.1306,0,0,0-5.09343,2.17688,21.43393,21.43393,0,0,0-8.26275,8.96392A22.86236,22.86236,0,0,0,335.42,259.24169a22.58959,22.58959,0,0,0,2.92858-2.14749A22.91247,22.91247,0,0,0,343.49626,250.68808Z" transform="translate(-13.39593 -14.93062)"/><path class="cls-2" d="M329.4937,233.298a21.47121,21.47121,0,0,0-3.48564,5.31733,21.13076,21.13076,0,0,0-1.64235,5.29,21.43393,21.43393,0,0,0,1.47346,12.10181,22.86234,22.86234,0,0,0,4.9363-11.01527,22.5893,22.5893,0,0,0,.262-3.6221A22.91243,22.91243,0,0,0,329.4937,233.298Z" transform="translate(-13.39593 -14.93062)"/><path class="cls-2" d="M354.4937,217.298a21.47121,21.47121,0,0,0-3.48564,5.31733,21.13076,21.13076,0,0,0-1.64235,5.29,21.43393,21.43393,0,0,0,1.47346,12.10181,22.86234,22.86234,0,0,0,4.9363-11.01527,22.5893,22.5893,0,0,0,.262-3.6221A22.91243,22.91243,0,0,0,354.4937,217.298Z" transform="translate(-13.39593 -14.93062)"/><path class="cls-2" d="M373.4937,205.298a21.47121,21.47121,0,0,0-3.48564,5.31733,21.13076,21.13076,0,0,0-1.64235,5.29,21.43393,21.43393,0,0,0,1.47346,12.10181,22.86234,22.86234,0,0,0,4.9363-11.01527,22.5893,22.5893,0,0,0,.262-3.6221A22.91243,22.91243,0,0,0,373.4937,205.298Z" transform="translate(-13.39593 -14.93062)"/><path class="cls-2" d="M379.03318,222.42343a21.472,21.472,0,0,0,5.77744,2.65422,21.131,21.131,0,0,0,5.47573.83558,21.434,21.434,0,0,0,11.747-3.26064,22.8623,22.8623,0,0,0-11.62794-3.23947,22.59062,22.59062,0,0,0-3.6207.28079A22.91229,22.91229,0,0,0,379.03318,222.42343Z" transform="translate(-13.39593 -14.93062)"/><path class="cls-2" d="M385.65286,217.8832a21.47216,21.47216,0,0,0,5.51768-3.15895,21.13084,21.13084,0,0,0,3.86236-3.97038,21.434,21.434,0,0,0,4.17373-11.45447,22.86228,22.86228,0,0,0-9.39413,7.5798,22.588,22.588,0,0,0-1.87577,3.10962A22.9123,22.9123,0,0,0,385.65286,217.8832Z" transform="translate(-13.39593 -14.93062)"/><path class="cls-2" d="M421.50554,223.136a21.47189,21.47189,0,0,0-3.83272-5.07288,21.13094,21.13094,0,0,0-4.42782-3.32807,21.43393,21.43393,0,0,0-11.891-2.68852,22.86231,22.86231,0,0,0,8.70916,8.35785,22.58957,22.58957,0,0,0,3.32226,1.46658A22.91249,22.91249,0,0,0,421.50554,223.136Z" transform="translate(-13.39593 -14.93062)"/><path class="cls-2" d="M424.84969,191.77235a21.47168,21.47168,0,0,0-5.72212,2.77147,21.13057,21.13057,0,0,0-4.12662,3.695,21.434,21.434,0,0,0-4.95266,11.13985,22.8624,22.8624,0,0,0,9.89383-6.91487,22.59006,22.59006,0,0,0,2.08547-2.97306A22.91237,22.91237,0,0,0,424.84969,191.77235Z" transform="translate(-13.39593 -14.93062)"/><path class="cls-2" d="M435.01926,228.63353a21.47164,21.47164,0,0,0-.558-6.33344,21.131,21.131,0,0,0-1.988-5.17006,21.43407,21.43407,0,0,0-8.65386-8.587,22.86229,22.86229,0,0,0,2.94915,11.70494,22.58905,22.58905,0,0,0,2.03829,3.0056A22.91229,22.91229,0,0,0,435.01926,228.63353Z" transform="translate(-13.39593 -14.93062)"/><path class="cls-2" d="M434.39341,208.17373a21.47191,21.47191,0,0,0,6.33327-.55991,21.1307,21.1307,0,0,0,5.16945-1.9896,21.43394,21.43394,0,0,0,8.58429-8.6565,22.86242,22.86242,0,0,0-11.704,2.95274,22.58985,22.58985,0,0,0-3.005,2.03922A22.91246,22.91246,0,0,0,434.39341,208.17373Z" transform="translate(-13.39593 -14.93062)"/><path class="cls-2" d="M451.34023,234.92166a21.47166,21.47166,0,0,0,1.59133-6.1556,21.13124,21.13124,0,0,0-.14536-5.5372,21.43409,21.43409,0,0,0-5.2855-10.98584,22.8623,22.8623,0,0,0-1.13334,12.01744,22.59091,22.59091,0,0,0,.9163,3.51406A22.9123,22.9123,0,0,0,451.34023,234.92166Z" transform="translate(-13.39593 -14.93062)"/><path class="cls-2" d="M479.86477,212.71412a21.47153,21.47153,0,0,0-6.16446-1.55666,21.13086,21.13086,0,0,0-5.53629.17651,21.434,21.434,0,0,0-10.95591,5.34725,22.86237,22.86237,0,0,0,12.02362,1.06568,22.589,22.589,0,0,0,3.50885-.93606A22.91239,22.91239,0,0,0,479.86477,212.71412Z" transform="translate(-13.39593 -14.93062)"/><path class="cls-2" d="M392.50519,250.75157a21.47172,21.47172,0,0,0-2.96772-5.62285,21.13076,21.13076,0,0,0-3.83549-3.99634A21.43405,21.43405,0,0,0,374.3975,236.568a22.86223,22.86223,0,0,0,7.25293,9.64873,22.58913,22.58913,0,0,0,3.04342,1.98139A22.91247,22.91247,0,0,0,392.50519,250.75157Z" transform="translate(-13.39593 -14.93062)"/><path class="cls-2" d="M410.58472,229.77643a21.47183,21.47183,0,0,0-6.26923-1.05857,21.1309,21.1309,0,0,0-5.50444.61879,21.43412,21.43412,0,0,0-10.49308,6.20647,22.8624,22.8624,0,0,0,12.07034.10051,22.59007,22.59007,0,0,0,3.42274-1.21374A22.91223,22.91223,0,0,0,410.58472,229.77643Z" transform="translate(-13.39593 -14.93062)"/><path class="cls-2" d="M402.32578,241.08466a21.47151,21.47151,0,0,0-2.48373,5.85276,21.1312,21.1312,0,0,0-.67472,5.49787,21.434,21.434,0,0,0,3.60358,11.64642,22.86228,22.86228,0,0,0,2.89723-11.7179,22.58987,22.58987,0,0,0-.3868-3.61091A22.91261,22.91261,0,0,0,402.32578,241.08466Z" transform="translate(-13.39593 -14.93062)"/><path class="cls-2" d="M431.10326,234.32654a21.4717,21.4717,0,0,0-6.355-.19347,21.13043,21.13043,0,0,0-5.36857,1.36389,21.43408,21.43408,0,0,0-9.54835,7.57985,22.86235,22.86235,0,0,0,11.97121-1.547,22.58963,22.58963,0,0,0,3.22518-1.6693A22.9123,22.9123,0,0,0,431.10326,234.32654Z" transform="translate(-13.39593 -14.93062)"/><path class="cls-2" d="M418.63962,249.60976a21.4716,21.4716,0,0,0-4.07528,4.88015,21.13079,21.13079,0,0,0-2.24112,5.06548,21.434,21.434,0,0,0,.06881,12.191,22.86232,22.86232,0,0,0,6.173-10.3729,22.5906,22.5906,0,0,0,.6777-3.56778A22.9123,22.9123,0,0,0,418.63962,249.60976Z" transform="translate(-13.39593 -14.93062)"/><path class="cls-2" d="M427.4278,251.14022a21.47165,21.47165,0,0,0,6.32107.684,21.13048,21.13048,0,0,0,5.45791-.945,21.43391,21.43391,0,0,0,10.10552-6.81935,22.86233,22.86233,0,0,0-12.055.61731,22.58976,22.58976,0,0,0-3.34452,1.41508A22.91222,22.91222,0,0,0,427.4278,251.14022Z" transform="translate(-13.39593 -14.93062)"/><path class="cls-2" d="M425.13212,279.34866a21.47173,21.47173,0,0,0,4.525-4.46636,21.13116,21.13116,0,0,0,2.71708-4.82693,21.43406,21.43406,0,0,0,1.1019-12.14129,22.86234,22.86234,0,0,0-7.14034,9.73236,22.59017,22.59017,0,0,0-1.01709,3.48623A22.91238,22.91238,0,0,0,425.13212,279.34866Z" transform="translate(-13.39593 -14.93062)"/><path class="cls-2" d="M457.93577,275.06147a21.47163,21.47163,0,0,0-3.3969-5.37446,21.13045,21.13045,0,0,0-4.13526-3.68529,21.434,21.434,0,0,0-11.62581-3.66954,22.86227,22.86227,0,0,0,7.98281,9.05416,22.59,22.59,0,0,0,3.18857,1.73819A22.91242,22.91242,0,0,0,457.93577,275.06147Z" transform="translate(-13.39593 -14.93062)"/><path class="cls-2" d="M440.67493,278.61732a21.47182,21.47182,0,0,0-6.35367.23373,21.13107,21.13107,0,0,0-5.26486,1.72133,21.434,21.434,0,0,0-9.01777,8.20395,22.86228,22.86228,0,0,0,11.8403-2.34742,22.58835,22.58835,0,0,0,3.10579-1.88211A22.91228,22.91228,0,0,0,440.67493,278.61732Z" transform="translate(-13.39593 -14.93062)"/><path class="cls-2" d="M442.41825,284.905a21.47137,21.47137,0,0,0,3.73672,5.144,21.131,21.131,0,0,0,4.36451,3.41069,21.43407,21.43407,0,0,0,11.83843,2.91147,22.86222,22.86222,0,0,0-8.55059-8.52,22.58949,22.58949,0,0,0-3.29411-1.52876A22.91254,22.91254,0,0,0,442.41825,284.905Z" transform="translate(-13.39593 -14.93062)"/><path class="cls-2" d="M417.12408,297.00074a21.4716,21.4716,0,0,0,6.21287,1.35057,21.131,21.131,0,0,0,5.52735-.36074,21.43407,21.43407,0,0,0,10.77182-5.709,22.86223,22.86223,0,0,0-12.05244-.6648,22.58946,22.58946,0,0,0-3.47574,1.05236A22.91237,22.91237,0,0,0,417.12408,297.00074Z" transform="translate(-13.39593 -14.93062)"/><path class="cls-2" d="M437.96746,301.98573a21.47161,21.47161,0,0,0,1.82195,6.09133,21.13086,21.13086,0,0,0,2.98843,4.6638,21.434,21.434,0,0,0,10.2058,6.66833,22.86242,22.86242,0,0,0-5.24586-10.87126,22.58948,22.58948,0,0,0-2.6018-2.53355A22.91263,22.91263,0,0,0,437.96746,301.98573Z" transform="translate(-13.39593 -14.93062)"/><path class="cls-2" d="M412.35467,313.62862a21.47166,21.47166,0,0,0,6.27372,1.03163,21.13089,21.13089,0,0,0,5.50172-.64245,21.434,21.434,0,0,0,10.46631-6.2515,22.86225,22.86225,0,0,0-12.07065-.04863,22.58818,22.58818,0,0,0-3.41749,1.22843A22.91241,22.91241,0,0,0,412.35467,313.62862Z" transform="translate(-13.39593 -14.93062)"/><path class="cls-2" d="M448.1803,333.30112a21.47167,21.47167,0,0,0-2.02238-6.02775,21.1304,21.1304,0,0,0-3.141-4.56243,21.434,21.434,0,0,0-10.42072-6.32722,22.86229,22.86229,0,0,0,5.60246,10.69185,22.59,22.59,0,0,0,2.68415,2.44614A22.91235,22.91235,0,0,0,448.1803,333.30112Z" transform="translate(-13.39593 -14.93062)"/><path class="cls-2" d="M428.50584,322.89881a21.47216,21.47216,0,0,0-6.27487-1.0246,21.131,21.131,0,0,0-5.501.6486,21.434,21.434,0,0,0-10.45931,6.26322,22.8624,22.8624,0,0,0,12.0707.03512,22.58863,22.58863,0,0,0,3.41611-1.23226A22.91247,22.91247,0,0,0,428.50584,322.89881Z" transform="translate(-13.39593 -14.93062)"/><path class="cls-2" d="M447.61764,340.94534a21.47205,21.47205,0,0,0-4.03726-4.91165,21.13066,21.13066,0,0,0-4.56041-3.14395,21.43407,21.43407,0,0,0-11.99117-2.19927,22.86235,22.86235,0,0,0,9.04415,7.99416,22.58962,22.58962,0,0,0,3.37953,1.32929A22.91233,22.91233,0,0,0,447.61764,340.94534Z" transform="translate(-13.39593 -14.93062)"/><path class="cls-2" d="M423.06842,335.28891a21.47158,21.47158,0,0,0-6.0915,1.82135,21.13094,21.13094,0,0,0-4.6641,2.988,21.43408,21.43408,0,0,0-6.66933,10.20515,22.86229,22.86229,0,0,0,10.87177-5.24479,22.59048,22.59048,0,0,0,2.53381-2.60155A22.91246,22.91246,0,0,0,423.06842,335.28891Z" transform="translate(-13.39593 -14.93062)"/><path class="cls-2" d="M421.46092,345.43349a21.47155,21.47155,0,0,0,2.096,6.00253,21.13041,21.13041,0,0,0,3.19664,4.52364A21.434,21.434,0,0,0,437.251,362.1588a22.86247,22.86247,0,0,0-5.733-10.62245,22.591,22.591,0,0,0-2.7139-2.41309A22.91258,22.91258,0,0,0,421.46092,345.43349Z" transform="translate(-13.39593 -14.93062)"/><path class="cls-2" d="M398.50807,365.73624a21.47154,21.47154,0,0,0,6.31066-.77418,21.131,21.131,0,0,0,5.09907-2.16362,21.43388,21.43388,0,0,0,8.286-8.9424,22.8623,22.8623,0,0,0-11.59726,3.34763,22.58913,22.58913,0,0,0-2.93415,2.13987A22.91239,22.91239,0,0,0,398.50807,365.73624Z" transform="translate(-13.39593 -14.93062)"/><path class="cls-2" d="M417.4306,361.55077a21.47168,21.47168,0,0,0,2.86955,5.67358,21.13089,21.13089,0,0,0,3.76544,4.06241,21.434,21.434,0,0,0,11.22345,4.76018,22.86237,22.86237,0,0,0-7.08414-9.77334,22.59,22.59,0,0,0-3.00851-2.034A22.91259,22.91259,0,0,0,417.4306,361.55077Z" transform="translate(-13.39593 -14.93062)"/><path class="cls-2" d="M395.50637,381.72973a21.472,21.472,0,0,0,6.31138-.76827,21.131,21.131,0,0,0,5.1011-2.15884,21.434,21.434,0,0,0,8.29442-8.93463,22.86231,22.86231,0,0,0-11.6004,3.33675,22.59039,22.59039,0,0,0-2.93615,2.13712A22.91241,22.91241,0,0,0,395.50637,381.72973Z" transform="translate(-13.39593 -14.93062)"/><path class="cls-2" d="M416.02512,374.2a21.47169,21.47169,0,0,0,1.02954,6.27405,21.13136,21.13136,0,0,0,2.36869,5.0071,21.43405,21.43405,0,0,0,9.27117,7.91647,22.8623,22.8623,0,0,0-3.81532-11.45192,22.5897,22.5897,0,0,0-2.25714-2.84493A22.91218,22.91218,0,0,0,416.02512,374.2Z" transform="translate(-13.39593 -14.93062)"/><path class="cls-2" d="M466.41458,228.03667a21.47166,21.47166,0,0,0-4.476,4.51549,21.13065,21.13065,0,0,0-2.66423,4.85629,21.434,21.434,0,0,0-.96932,12.15259,22.86234,22.86234,0,0,0,7.03368-9.80971,22.58916,22.58916,0,0,0,.979-3.49712A22.91247,22.91247,0,0,0,466.41458,228.03667Z" transform="translate(-13.39593 -14.93062)"/><path class="cls-2" d="M494.51005,215.88355a21.47158,21.47158,0,0,0-6.19268,1.44028A21.13122,21.13122,0,0,0,483.477,220.017a21.434,21.434,0,0,0-7.289,9.77214,22.8622,22.8622,0,0,0,11.176-4.56084,22.58953,22.58953,0,0,0,2.69019-2.43949A22.91251,22.91251,0,0,0,494.51005,215.88355Z" transform="translate(-13.39593 -14.93062)"/><path class="cls-2" d="M477.51005,244.88355a21.47158,21.47158,0,0,0-6.19268,1.44028A21.13122,21.13122,0,0,0,466.477,249.017a21.434,21.434,0,0,0-7.289,9.77214,22.8622,22.8622,0,0,0,11.176-4.56084,22.58953,22.58953,0,0,0,2.69019-2.43949A22.91251,22.91251,0,0,0,477.51005,244.88355Z" transform="translate(-13.39593 -14.93062)"/><path class="cls-2" d="M480.32435,250.598a21.47192,21.47192,0,0,0,2.18951,5.96907,21.13086,21.13086,0,0,0,3.26689,4.47316,21.43392,21.43392,0,0,0,10.59293,6.03446,22.86218,22.86218,0,0,0-5.89813-10.53162,22.5891,22.5891,0,0,0-2.75126-2.37042A22.91246,22.91246,0,0,0,480.32435,250.598Z" transform="translate(-13.39593 -14.93062)"/><path class="cls-2" d="M478.67745,260.97294a21.472,21.472,0,0,0-5.69926,2.81818,21.13119,21.13119,0,0,0-4.09625,3.7286,21.434,21.434,0,0,0-4.86135,11.18,22.86236,22.86236,0,0,0,9.83692-6.99558,22.58924,22.58924,0,0,0,2.06108-2.99A22.91224,22.91224,0,0,0,478.67745,260.97294Z" transform="translate(-13.39593 -14.93062)"/><path class="cls-2" d="M479.464,270.53418a21.472,21.472,0,0,0,2.83506,5.69088,21.13078,21.13078,0,0,0,3.74071,4.0852,21.434,21.434,0,0,0,11.19435,4.82822,22.86236,22.86236,0,0,0-7.02468-9.81616,22.58987,22.58987,0,0,0-2.99611-2.05222A22.91217,22.91217,0,0,0,479.464,270.53418Z" transform="translate(-13.39593 -14.93062)"/><path class="cls-2" d="M466.52191,297.75149a21.472,21.472,0,0,0,5.1791-3.6879,21.13107,21.13107,0,0,0,3.45182-4.33206,21.434,21.434,0,0,0,3.0233-11.81036,22.86231,22.86231,0,0,0-8.6005,8.46962,22.59108,22.59108,0,0,0-1.55984,3.27951A22.91222,22.91222,0,0,0,466.52191,297.75149Z" transform="translate(-13.39593 -14.93062)"/><path class="cls-2" d="M496.73211,304.72417a21.47167,21.47167,0,0,0-2.44812-5.86774,21.13089,21.13089,0,0,0-3.45915-4.32621,21.43388,21.43388,0,0,0-10.84639-5.566,22.86237,22.86237,0,0,0,6.35249,10.264,22.58976,22.58976,0,0,0,2.85217,2.248A22.91237,22.91237,0,0,0,496.73211,304.72417Z" transform="translate(-13.39593 -14.93062)"/><path class="cls-2" d="M479.4819,298.70638a21.47185,21.47185,0,0,0-5.93823,2.27182,21.13068,21.13068,0,0,0-4.42757,3.32842,21.434,21.434,0,0,0-5.88744,10.67535,22.86231,22.86231,0,0,0,10.44908-6.04317,22.58978,22.58978,0,0,0,2.33215-2.78377A22.91227,22.91227,0,0,0,479.4819,298.70638Z" transform="translate(-13.39593 -14.93062)"/><path class="cls-2" d="M506.42458,314.96448a21.47161,21.47161,0,0,0-4.88144-4.07374,21.13016,21.13016,0,0,0-5.06619-2.23952,21.434,21.434,0,0,0-12.191.07265,22.86232,22.86232,0,0,0,10.37485,6.16973,22.58965,22.58965,0,0,0,3.568.67657A22.9126,22.9126,0,0,0,506.42458,314.96448Z" transform="translate(-13.39593 -14.93062)"/><path class="cls-2" d="M484.08769,315.57454a21.47193,21.47193,0,0,0-6.2841.96641,21.13072,21.13072,0,0,0-5.03066,2.31822,21.43394,21.43394,0,0,0-8.00929,9.19109,22.86226,22.86226,0,0,0,11.4897-3.7,22.58958,22.58958,0,0,0,2.86748-2.22842A22.91229,22.91229,0,0,0,484.08769,315.57454Z" transform="translate(-13.39593 -14.93062)"/><path class="cls-2" d="M503.93887,335.275a21.47161,21.47161,0,0,0-3.3416-5.409,21.13044,21.13044,0,0,0-4.09725-3.7275,21.434,21.434,0,0,0-11.58757-3.78857,22.86232,22.86232,0,0,0,7.88954,9.13555,22.59028,22.59028,0,0,0,3.17058,1.7708A22.91253,22.91253,0,0,0,503.93887,335.275Z" transform="translate(-13.39593 -14.93062)"/><path class="cls-2" d="M481.09548,331.52048a21.47163,21.47163,0,0,0-6.35332-.24311,21.13073,21.13073,0,0,0-5.37906,1.32192,21.434,21.434,0,0,0-9.60725,7.505,22.86232,22.86232,0,0,0,11.98293-1.45344,22.59062,22.59062,0,0,0,3.23811-1.64406A22.91251,22.91251,0,0,0,481.09548,331.52048Z" transform="translate(-13.39593 -14.93062)"/><path class="cls-2" d="M496.77155,354.56607a21.47149,21.47149,0,0,0-1.75146-6.112,21.13092,21.13092,0,0,0-2.93435-4.698,21.434,21.434,0,0,0-10.12809-6.78578,22.86221,22.86221,0,0,0,5.11992,10.93112,22.58928,22.58928,0,0,0,2.57236,2.56345A22.91261,22.91261,0,0,0,496.77155,354.56607Z" transform="translate(-13.39593 -14.93062)"/><path class="cls-2" d="M479.81917,345.97574a21.47149,21.47149,0,0,0-6.3577.05807,21.13072,21.13072,0,0,0-5.31042,1.57519,21.434,21.434,0,0,0-9.241,7.95163,22.86223,22.86223,0,0,0,11.90064-2.01934,22.58916,22.58916,0,0,0,3.15662-1.79557A22.91222,22.91222,0,0,0,479.81917,345.97574Z" transform="translate(-13.39593 -14.93062)"/><path class="cls-2" d="M480.35783,355.23947a21.47138,21.47138,0,0,0-2.571,5.81493,21.13065,21.13065,0,0,0-.75694,5.48714,21.434,21.434,0,0,0,3.42886,11.69906,22.86225,22.86225,0,0,0,3.07229-11.67322,22.58925,22.58925,0,0,0-.33271-3.61629A22.9122,22.9122,0,0,0,480.35783,355.23947Z" transform="translate(-13.39593 -14.93062)"/><path class="cls-2" d="M495.069,253.6836a21.47178,21.47178,0,0,0-.65427-6.32421,21.13053,21.13053,0,0,0-2.06645-5.13922,21.43406,21.43406,0,0,0-8.78351-8.45428,22.86225,22.86225,0,0,0,3.1269,11.65871,22.59033,22.59033,0,0,0,2.08379,2.97424A22.91247,22.91247,0,0,0,495.069,253.6836Z" transform="translate(-13.39593 -14.93062)"/><path class="cls-2" d="M520.65368,234.72979a21.47143,21.47143,0,0,0-6.16756-1.54433,21.13038,21.13038,0,0,0-5.53593.18758,21.434,21.434,0,0,0-10.9452,5.36913,22.86221,22.86221,0,0,0,12.02573,1.04165,22.58947,22.58947,0,0,0,3.507-.94308A22.91237,22.91237,0,0,0,520.65368,234.72979Z" transform="translate(-13.39593 -14.93062)"/><path class="cls-2" d="M505.10465,246.37315a21.472,21.472,0,0,0-3.46129,5.33322,21.13135,21.13135,0,0,0-1.61813,5.29749,21.43391,21.43391,0,0,0,1.5288,12.095,22.86226,22.86226,0,0,0,4.88586-11.03773,22.5895,22.5895,0,0,0,.2454-3.62326A22.91241,22.91241,0,0,0,505.10465,246.37315Z" transform="translate(-13.39593 -14.93062)"/><path class="cls-2" d="M510.71065,249.36283a21.47157,21.47157,0,0,0,5.95876,2.21743,21.13109,21.13109,0,0,0,5.52268.42624,21.43392,21.43392,0,0,0,11.47218-4.12482,22.8624,22.8624,0,0,0-11.83657-2.36616,22.59027,22.59027,0,0,0-3.58981.54915A22.91247,22.91247,0,0,0,510.71065,249.36283Z" transform="translate(-13.39593 -14.93062)"/><path class="cls-2" d="M505.55329,277.76538a21.47137,21.47137,0,0,0,5.06658-3.841,21.13068,21.13068,0,0,0,3.3208-4.43328,21.434,21.434,0,0,0,2.669-11.89544,22.86228,22.86228,0,0,0-8.34353,8.72288,22.58988,22.58988,0,0,0-1.46113,3.32466A22.91262,22.91262,0,0,0,505.55329,277.76538Z" transform="translate(-13.39593 -14.93062)"/><path class="cls-2" d="M544.43,267.72038a21.47172,21.47172,0,0,0-5.25712-3.57583,21.13038,21.13038,0,0,0-5.26125-1.73233,21.434,21.434,0,0,0-12.12518,1.26683,22.86217,22.86217,0,0,0,10.92947,5.12346,22.589,22.589,0,0,0,3.61711.32371A22.91254,22.91254,0,0,0,544.43,267.72038Z" transform="translate(-13.39593 -14.93062)"/><path class="cls-2" d="M506.10746,288.8764a21.47167,21.47167,0,0,0,5.87534-2.42984,21.13081,21.13081,0,0,0,4.337-3.44565,21.434,21.434,0,0,0,5.5998-10.829,22.86233,22.86233,0,0,0-10.2837,6.32049,22.58953,22.58953,0,0,0-2.25686,2.84514A22.91238,22.91238,0,0,0,506.10746,288.8764Z" transform="translate(-13.39593 -14.93062)"/><path class="cls-2" d="M547.34166,285.50874a21.47154,21.47154,0,0,0-5.26847-3.55906,21.13087,21.13087,0,0,0-5.26674-1.71557,21.43406,21.43406,0,0,0-12.12109,1.30545,22.86218,22.86218,0,0,0,10.94573,5.08862,22.58914,22.58914,0,0,0,3.61812.31219A22.91246,22.91246,0,0,0,547.34166,285.50874Z" transform="translate(-13.39593 -14.93062)"/><path class="cls-2" d="M523.19935,291.45685a21.47182,21.47182,0,0,0-6.18026,1.49274,21.13077,21.13077,0,0,0-4.81732,2.73407,21.434,21.434,0,0,0-7.20594,9.83359,22.86231,22.86231,0,0,0,11.13688-4.65543,22.58974,22.58974,0,0,0,2.66942-2.46222A22.91255,22.91255,0,0,0,523.19935,291.45685Z" transform="translate(-13.39593 -14.93062)"/><path class="cls-2" d="M525.87228,297.22315a21.47163,21.47163,0,0,0,3.97157,4.96492,21.131,21.131,0,0,0,4.51819,3.20432A21.434,21.434,0,0,0,546.3229,307.751a22.86228,22.86228,0,0,0-8.937-8.11374,22.5906,22.5906,0,0,0-3.36156-1.37412A22.91244,22.91244,0,0,0,525.87228,297.22315Z" transform="translate(-13.39593 -14.93062)"/><path class="cls-2" d="M514.87388,325.20527a21.47179,21.47179,0,0,0,5.31324-3.49189,21.13112,21.13112,0,0,0,3.61121-4.2001,21.43406,21.43406,0,0,0,3.46232-11.6892,22.86219,22.86219,0,0,0-8.91085,8.14248,22.58912,22.58912,0,0,0-1.68124,3.219A22.91226,22.91226,0,0,0,514.87388,325.20527Z" transform="translate(-13.39593 -14.93062)"/><path class="cls-2" d="M535.3398,316.02489a21.47148,21.47148,0,0,0,2.71318,5.75,21.13111,21.13111,0,0,0,3.65285,4.164,21.43394,21.43394,0,0,0,11.08895,5.06558,22.86231,22.86231,0,0,0-6.814-9.96357,22.59039,22.59039,0,0,0-2.95171-2.11557A22.91252,22.91252,0,0,0,535.3398,316.02489Z" transform="translate(-13.39593 -14.93062)"/><path class="cls-2" d="M527.385,345.019a21.47151,21.47151,0,0,0,4.73442-4.2437,21.131,21.131,0,0,0,2.946-4.69075,21.434,21.434,0,0,0,1.6842-12.07429,22.86224,22.86224,0,0,0-7.59987,9.3779,22.58925,22.58925,0,0,0-1.18348,3.43332A22.91237,22.91237,0,0,0,527.385,345.019Z" transform="translate(-13.39593 -14.93062)"/><path class="cls-2" d="M554.90923,353.82215a21.47211,21.47211,0,0,0-1.34828-6.21337,21.1311,21.1311,0,0,0-2.62105-4.87974,21.43392,21.43392,0,0,0-9.663-7.43318,22.86233,22.86233,0,0,0,4.39459,11.24236,22.58872,22.58872,0,0,0,2.39933,2.72608A22.91243,22.91243,0,0,0,554.90923,353.82215Z" transform="translate(-13.39593 -14.93062)"/><path class="cls-2" d="M535.20179,370.69031a21.47161,21.47161,0,0,0,3.97218-4.96443,21.13082,21.13082,0,0,0,2.13453-5.11131,21.434,21.434,0,0,0-.32412-12.18688,22.86234,22.86234,0,0,0-5.9544,10.49992,22.58934,22.58934,0,0,0-.60282,3.58119A22.91221,22.91221,0,0,0,535.20179,370.69031Z" transform="translate(-13.39593 -14.93062)"/><path class="cls-2" d="M313.72331,180.06639a21.47184,21.47184,0,0,0,3.04481-5.58148,21.13107,21.13107,0,0,0,1.20973-5.40539,21.434,21.434,0,0,0-2.446-11.94328,22.86228,22.86228,0,0,0-4.03054,11.378,22.59045,22.59045,0,0,0,.03143,3.63143A22.91247,22.91247,0,0,0,313.72331,180.06639Z" transform="translate(-13.39593 -14.93062)"/><path class="cls-2" d="M322.73472,170.93672a21.472,21.472,0,0,0,6.31528.73548,21.13039,21.13039,0,0,0,5.46543-.90043,21.434,21.434,0,0,0,10.16079-6.73673,22.86236,22.86236,0,0,0-12.0596.519,22.58915,22.58915,0,0,0-3.35594,1.38777A22.91218,22.91218,0,0,0,322.73472,170.93672Z" transform="translate(-13.39593 -14.93062)"/><path class="cls-2" d="M328.0752,153.74243a21.47159,21.47159,0,0,0,3.82093-5.08175,21.13064,21.13064,0,0,0,1.9797-5.17325,21.434,21.434,0,0,0-.69083-12.1716,22.86232,22.86232,0,0,0-5.63562,10.67441,22.58878,22.58878,0,0,0-.49475,3.59771A22.9121,22.9121,0,0,0,328.0752,153.74243Z" transform="translate(-13.39593 -14.93062)"/><path class="cls-2" d="M354.26024,161.0163a21.47162,21.47162,0,0,0-3.38313-5.38314,21.1311,21.1311,0,0,0-4.12581-3.69587,21.43406,21.43406,0,0,0-11.61639-3.69927,22.86237,22.86237,0,0,0,7.95962,9.07456,22.58991,22.58991,0,0,0,3.18411,1.74634A22.91249,22.91249,0,0,0,354.26024,161.0163Z" transform="translate(-13.39593 -14.93062)"/><path class="cls-2" d="M376.11885,144.278a21.472,21.472,0,0,0-6.06813-1.89779,21.13089,21.13089,0,0,0-5.53753-.13229,21.434,21.434,0,0,0-11.23689,4.72836,22.86229,22.86229,0,0,0,11.94555,1.7341,22.58992,22.58992,0,0,0,3.55557-.73906A22.91255,22.91255,0,0,0,376.11885,144.278Z" transform="translate(-13.39593 -14.93062)"/><path class="cls-2" d="M372.1787,170.60075a21.47207,21.47207,0,0,0-.55388-6.3338,21.131,21.131,0,0,0-1.98468-5.17134,21.43407,21.43407,0,0,0-8.64833-8.59253,22.86239,22.86239,0,0,0,2.9416,11.70684,22.58965,22.58965,0,0,0,2.03636,3.00692A22.91241,22.91241,0,0,0,372.1787,170.60075Z" transform="translate(-13.39593 -14.93062)"/><path class="cls-2" d="M400.84471,142.33888a21.47183,21.47183,0,0,0-6.34954.32725,21.131,21.131,0,0,0-5.23895,1.79866,21.43393,21.43393,0,0,0-8.896,8.33583,22.86226,22.86226,0,0,0,11.80445-2.52149,22.58956,22.58956,0,0,0,3.07775-1.92763A22.91238,22.91238,0,0,0,400.84471,142.33888Z" transform="translate(-13.39593 -14.93062)"/><path class="cls-2" d="M386.07476,156.33314a21.47194,21.47194,0,0,0-1.24021,6.23583,21.13111,21.13111,0,0,0,.45867,5.52009,21.434,21.434,0,0,0,5.8991,10.66891,22.86236,22.86236,0,0,0,.451-12.06232,22.59018,22.59018,0,0,0-1.11381-3.45655A22.91231,22.91231,0,0,0,386.07476,156.33314Z" transform="translate(-13.39593 -14.93062)"/><path class="cls-2" d="M415.594,145.50714a21.4719,21.4719,0,0,0-6.16277,1.56334,21.131,21.131,0,0,0-4.78573,2.789,21.43409,21.43409,0,0,0-7.093,9.91538,22.86217,22.86217,0,0,0,11.0829-4.78253,22.58979,22.58979,0,0,0,2.64106-2.49259A22.91232,22.91232,0,0,0,415.594,145.50714Z" transform="translate(-13.39593 -14.93062)"/><path class="cls-2" d="M404.04034,167.14981a21.47157,21.47157,0,0,0-2.83007,5.69337,21.13056,21.13056,0,0,0-1.003,5.44754,21.434,21.434,0,0,0,2.899,11.84148,22.86234,22.86234,0,0,0,3.59437-11.52318,22.5895,22.5895,0,0,0-.16967-3.6276A22.91267,22.91267,0,0,0,404.04034,167.14981Z" transform="translate(-13.39593 -14.93062)"/><path class="cls-2" d="M431.64308,151.72524a21.47141,21.47141,0,0,0-6.18309,1.48095,21.13084,21.13084,0,0,0-4.82253,2.72488,21.43392,21.43392,0,0,0-7.22467,9.81983,22.86233,22.86233,0,0,0,11.14574-4.63419,22.59018,22.59018,0,0,0,2.6741-2.45712A22.91256,22.91256,0,0,0,431.64308,151.72524Z" transform="translate(-13.39593 -14.93062)"/><path class="cls-2" d="M412.91055,167.86536a21.47172,21.47172,0,0,0,2.21565,5.95942,21.131,21.131,0,0,0,3.28646,4.4588,21.434,21.434,0,0,0,10.61928,5.988,22.86232,22.86232,0,0,0-5.94424-10.50568,22.58956,22.58956,0,0,0-2.76162-2.35833A22.91241,22.91241,0,0,0,412.91055,167.86536Z" transform="translate(-13.39593 -14.93062)"/><path class="cls-2" d="M427.70525,170.1318a21.47181,21.47181,0,0,0,6.06962,1.893,21.13116,21.13116,0,0,0,5.53764.12792,21.434,21.434,0,0,0,11.23314-4.73724,22.86226,22.86226,0,0,0-11.94691-1.72466,22.58981,22.58981,0,0,0-3.555.74186A22.91251,22.91251,0,0,0,427.70525,170.1318Z" transform="translate(-13.39593 -14.93062)"/><path class="cls-2" d="M427.37988,202.19276a21.47162,21.47162,0,0,0,5.47616-3.23039,21.13068,21.13068,0,0,0,3.81045-4.02023A21.434,21.434,0,0,0,440.691,183.4344a22.86236,22.86236,0,0,0-9.29485,7.70124,22.58918,22.58918,0,0,0-1.83521,3.13373A22.91237,22.91237,0,0,0,427.37988,202.19276Z" transform="translate(-13.39593 -14.93062)"/><path class="cls-2" d="M443.75841,184.55659a21.47186,21.47186,0,0,0,5.18118,3.685,21.13087,21.13087,0,0,0,5.22387,1.842,21.434,21.434,0,0,0,12.149-1.013,22.86233,22.86233,0,0,0-10.81993-5.3509,22.58819,22.58819,0,0,0-3.60955-.39928A22.91227,22.91227,0,0,0,443.75841,184.55659Z" transform="translate(-13.39593 -14.93062)"/><path class="cls-2" d="M345.87491,140.66107a21.4716,21.4716,0,0,0,5.264-3.56566,21.13045,21.13045,0,0,0,3.55227-4.25007,21.43393,21.43393,0,0,0,3.29893-11.73635,22.86244,22.86244,0,0,0-8.7964,8.266,22.59086,22.59086,0,0,0-1.63618,3.2421A22.91238,22.91238,0,0,0,345.87491,140.66107Z" transform="translate(-13.39593 -14.93062)"/><path class="cls-2" d="M365.468,133.98129a21.47211,21.47211,0,0,0,5.58192,3.044,21.1309,21.1309,0,0,0,5.40558,1.20894,21.434,21.434,0,0,0,11.94291-2.4478,22.86219,22.86219,0,0,0-11.37855-4.02886,22.58887,22.58887,0,0,0-3.63142.032A22.91213,22.91213,0,0,0,365.468,133.98129Z" transform="translate(-13.39593 -14.93062)"/><path class="cls-2" d="M371.53435,130.17483a21.47165,21.47165,0,0,0,4.97278-3.9617,21.13111,21.13111,0,0,0,3.21329-4.51183,21.43408,21.43408,0,0,0,2.38229-11.95616,22.86234,22.86234,0,0,0-8.13146,8.92091,22.58916,22.58916,0,0,0-1.38079,3.35882A22.91234,22.91234,0,0,0,371.53435,130.17483Z" transform="translate(-13.39593 -14.93062)"/><path class="cls-2" d="M393.53178,126.19359a21.47173,21.47173,0,0,0,3.18255,5.5041,21.13072,21.13072,0,0,0,3.98688,3.84532,21.43393,21.43393,0,0,0,11.47224,4.12464,22.86217,22.86217,0,0,0-7.62-9.36158,22.58855,22.58855,0,0,0-3.11763-1.86244A22.91227,22.91227,0,0,0,393.53178,126.19359Z" transform="translate(-13.39593 -14.93062)"/><path class="cls-2" d="M385.59191,125.75007a21.47179,21.47179,0,0,0,6.21288-1.3505,21.13044,21.13044,0,0,0,4.8788-2.62279,21.43388,21.43388,0,0,0,7.42973-9.66561,22.8622,22.8622,0,0,0-11.24079,4.3986,22.591,22.591,0,0,0-2.72522,2.4003A22.91249,22.91249,0,0,0,385.59191,125.75007Z" transform="translate(-13.39593 -14.93062)"/><path class="cls-2" d="M411.471,123.58127a21.47156,21.47156,0,0,0,6.11618,1.73668,21.131,21.131,0,0,0,5.53909-.01417A21.43393,21.43393,0,0,0,434.23422,120.28a22.86221,22.86221,0,0,0-11.98721-1.41765,22.58863,22.58863,0,0,0-3.53479.83281A22.91224,22.91224,0,0,0,411.471,123.58127Z" transform="translate(-13.39593 -14.93062)"/><path class="cls-2" d="M424.22522,130.46359a21.47141,21.47141,0,0,0,1.9752,6.04337,21.13064,21.13064,0,0,0,3.10524,4.58685,21.434,21.434,0,0,0,10.37094,6.40848,22.86223,22.86223,0,0,0-5.51871-10.73531,22.59,22.59,0,0,0-2.665-2.46705A22.91218,22.91218,0,0,0,424.22522,130.46359Z" transform="translate(-13.39593 -14.93062)"/><path class="cls-2" d="M439.83439,133.93059a21.47206,21.47206,0,0,0,6.27524,1.02232,21.13119,21.13119,0,0,0,5.50077-.6506,21.434,21.434,0,0,0,10.457-6.267,22.8623,22.8623,0,0,0-12.07071-.03073,22.59,22.59,0,0,0-3.41567,1.23349A22.91227,22.91227,0,0,0,439.83439,133.93059Z" transform="translate(-13.39593 -14.93062)"/><path class="cls-2" d="M447.9081,141.01628a21.47152,21.47152,0,0,0-.91264,6.29213,21.13093,21.13093,0,0,0,.74652,5.48857,21.434,21.434,0,0,0,6.44859,10.34605,22.86232,22.86232,0,0,0-.18-12.06941,22.58957,22.58957,0,0,0-1.29292-3.39362A22.91258,22.91258,0,0,0,447.9081,141.01628Z" transform="translate(-13.39593 -14.93062)"/><path class="cls-2" d="M457.49789,142.43368A21.47166,21.47166,0,0,0,463.169,145.308a21.13044,21.13044,0,0,0,5.43956,1.04545,21.434,21.434,0,0,0,11.8637-2.80669,22.86228,22.86228,0,0,0-11.49482-3.684,22.59026,22.59026,0,0,0-3.62882.14141A22.91242,22.91242,0,0,0,457.49789,142.43368Z" transform="translate(-13.39593 -14.93062)"/><path class="cls-2" d="M457.17931,175.57236a21.47186,21.47186,0,0,0,4.7368-4.241,21.13083,21.13083,0,0,0,2.94858-4.6891,21.43394,21.43394,0,0,0,1.691-12.07334,22.86232,22.86232,0,0,0-7.60513,9.37363,22.58933,22.58933,0,0,0-1.18541,3.43265A22.91224,22.91224,0,0,0,457.17931,175.57236Z" transform="translate(-13.39593 -14.93062)"/><path class="cls-2" d="M475.93712,157.55746a21.47166,21.47166,0,0,0,6.3201.69293,21.131,21.131,0,0,0,5.45924-.93724,21.43391,21.43391,0,0,0,10.11516-6.805,22.8623,22.8623,0,0,0-12.05582.60024,22.58985,22.58985,0,0,0-3.34652,1.41034A22.91239,22.91239,0,0,0,475.93712,157.55746Z" transform="translate(-13.39593 -14.93062)"/><path class="cls-2" d="M477.73143,186.592a21.47178,21.47178,0,0,0,2.63267-5.78729,21.13069,21.13069,0,0,0,.81518-5.4788,21.434,21.434,0,0,0-3.30439-11.73482,22.86229,22.86229,0,0,0-3.19612,11.63993,22.58986,22.58986,0,0,0,.29428,3.61962A22.91227,22.91227,0,0,0,477.73143,186.592Z" transform="translate(-13.39593 -14.93062)"/><path class="cls-2" d="M508.04459,175.0539a21.47184,21.47184,0,0,0-4.9831-3.94874,21.13139,21.13139,0,0,0-5.12131-2.11042,21.434,21.434,0,0,0-12.18521.38156,22.86224,22.86224,0,0,0,10.52786,5.90484,22.58889,22.58889,0,0,0,3.584.58594A22.91237,22.91237,0,0,0,508.04459,175.0539Z" transform="translate(-13.39593 -14.93062)"/><path class="cls-2" d="M491.31981,184.2959a21.47147,21.47147,0,0,0-5.69974,2.81722,21.1308,21.1308,0,0,0-4.09689,3.7279,21.434,21.434,0,0,0-4.86325,11.17916,22.86238,22.86238,0,0,0,9.83811-6.9939,22.589,22.589,0,0,0,2.06159-2.98967A22.91214,22.91214,0,0,0,491.31981,184.2959Z" transform="translate(-13.39593 -14.93062)"/><path class="cls-2" d="M520.46883,190.86441a21.4716,21.4716,0,0,0-5.63316-2.94809A21.131,21.131,0,0,0,509.41021,186.8a21.434,21.434,0,0,0-11.89931,2.65167,22.86234,22.86234,0,0,0,11.44578,3.83369,22.58919,22.58919,0,0,0,3.63035-.09405A22.91219,22.91219,0,0,0,520.46883,190.86441Z" transform="translate(-13.39593 -14.93062)"/><path class="cls-2" d="M494.70306,193.53273a21.47158,21.47158,0,0,0-4.69915,4.28273,21.1311,21.1311,0,0,0-2.907,4.715,21.434,21.434,0,0,0-1.58425,12.08781,22.8623,22.8623,0,0,0,7.522-9.44046,22.58908,22.58908,0,0,0,1.155-3.443A22.91222,22.91222,0,0,0,494.70306,193.53273Z" transform="translate(-13.39593 -14.93062)"/><path class="cls-2" d="M503.08563,206.58484a21.47185,21.47185,0,0,0-2.57248,5.8143,21.13109,21.13109,0,0,0-.75828,5.487,21.43394,21.43394,0,0,0,3.426,11.69989,22.86235,22.86235,0,0,0,3.07516-11.67246,22.59072,22.59072,0,0,0-.33183-3.61638A22.91233,22.91233,0,0,0,503.08563,206.58484Z" transform="translate(-13.39593 -14.93062)"/><path class="cls-2" d="M502.64837,201.19541a21.472,21.472,0,0,0,4.1647,4.80407,21.13089,21.13089,0,0,0,4.64131,3.02325,21.43393,21.43393,0,0,0,12.04473,1.884,22.8624,22.8624,0,0,0-9.25072-7.75417,22.58968,22.58968,0,0,0-3.41324-1.2402A22.91242,22.91242,0,0,0,502.64837,201.19541Z" transform="translate(-13.39593 -14.93062)"/><path class="cls-2" d="M290.73892,158.52919a21.47192,21.47192,0,0,0-4.00035,4.94176A21.13087,21.13087,0,0,0,284.575,168.57a21.43393,21.43393,0,0,0,.2548,12.18852,22.86234,22.86234,0,0,0,6.014-10.46588,22.58981,22.58981,0,0,0,.62319-3.5777A22.91267,22.91267,0,0,0,290.73892,158.52919Z" transform="translate(-13.39593 -14.93062)"/><path class="cls-2" d="M253.55285,162.66389a21.47153,21.47153,0,0,0,4.96751,3.96832,21.1304,21.1304,0,0,0,5.113,2.13057,21.434,21.434,0,0,0,12.18662-.33357,22.86223,22.86223,0,0,0-10.50454-5.94625,22.58984,22.58984,0,0,0-3.58165-.6A22.91237,22.91237,0,0,0,253.55285,162.66389Z" transform="translate(-13.39593 -14.93062)"/><path class="cls-2" d="M254.3585,139.01192a21.47148,21.47148,0,0,0,1.06812,6.26761,21.13052,21.13052,0,0,0,2.39944,4.99243,21.434,21.434,0,0,0,9.31969,7.85929,22.86235,22.86235,0,0,0-3.8857-11.42823,22.5891,22.5891,0,0,0-2.27459-2.831A22.91231,22.91231,0,0,0,254.3585,139.01192Z" transform="translate(-13.39593 -14.93062)"/><path class="cls-2" d="M231.15068,168.90229a21.47151,21.47151,0,0,0,6.27448-1.02693,21.131,21.131,0,0,0,5.00809-2.36661,21.4339,21.4339,0,0,0,7.92032-9.26787,22.86235,22.86235,0,0,0-11.4535,3.81056,22.58956,22.58956,0,0,0-2.84587,2.25595A22.91239,22.91239,0,0,0,231.15068,168.90229Z" transform="translate(-13.39593 -14.93062)"/><path class="cls-2" d="M241.14744,153.49124a21.47171,21.47171,0,0,0-4.13508-4.82958,21.13057,21.13057,0,0,0-4.62263-3.05172,21.434,21.434,0,0,0-12.03292-1.958,22.86228,22.86228,0,0,0,9.20287,7.81091,22.59034,22.59034,0,0,0,3.40555,1.26115A22.91237,22.91237,0,0,0,241.14744,153.49124Z" transform="translate(-13.39593 -14.93062)"/><path class="cls-2" d="M220.41909,155.135a21.47151,21.47151,0,0,0-5.4655,3.24838,21.13091,21.13091,0,0,0-3.79719,4.03275,21.434,21.434,0,0,0-3.98665,11.52093,22.8623,22.8623,0,0,0,9.26945-7.73178,22.58925,22.58925,0,0,0,1.82489-3.13976A22.91227,22.91227,0,0,0,220.41909,155.135Z" transform="translate(-13.39593 -14.93062)"/><path class="cls-2" d="M211.5433,153.49672a21.47168,21.47168,0,0,0-.65221-6.32443,21.13031,21.13031,0,0,0-2.06478-5.13988,21.434,21.434,0,0,0-8.78076-8.45714,22.86229,22.86229,0,0,0,3.12311,11.65973,22.59062,22.59062,0,0,0,2.08282,2.97492A22.91265,22.91265,0,0,0,211.5433,153.49672Z" transform="translate(-13.39593 -14.93062)"/><path class="cls-2" d="M198.791,157.26725a21.47121,21.47121,0,0,0-5.89727,2.37611,21.1302,21.1302,0,0,0-4.36823,3.40591,21.434,21.434,0,0,0-5.69842,10.77744,22.86243,22.86243,0,0,0,10.341-6.22635,22.59143,22.59143,0,0,0,2.28274-2.82443A22.91307,22.91307,0,0,0,198.791,157.26725Z" transform="translate(-13.39593 -14.93062)"/><path class="cls-2" d="M183.295,158.12865a21.47109,21.47109,0,0,0-5.66485-2.88674,21.13064,21.13064,0,0,0-5.43725-1.05733,21.43392,21.43392,0,0,0-11.86982,2.78073,22.86225,22.86225,0,0,0,11.48673,3.70917,22.59109,22.59109,0,0,0,3.62913-.13347A22.913,22.913,0,0,0,183.295,158.12865Z" transform="translate(-13.39593 -14.93062)"/><path class="cls-2" d="M169.18876,166.248a21.47156,21.47156,0,0,0-4.96528,3.97112,21.13025,21.13025,0,0,0-3.20473,4.5179,21.434,21.434,0,0,0-2.35968,11.96064,22.86228,22.86228,0,0,0,8.11457-8.93627A22.59188,22.59188,0,0,0,168.14808,174.4,22.91344,22.91344,0,0,0,169.18876,166.248Z" transform="translate(-13.39593 -14.93062)"/><path class="cls-2" d="M155.09264,168.1498a21.4713,21.4713,0,0,0-5.05-3.86276,21.13045,21.13045,0,0,0-5.15671-2.02236,21.434,21.434,0,0,0-12.1769.59029,22.86237,22.86237,0,0,0,10.6275,5.72359,22.591,22.591,0,0,0,3.59351.52444A22.91319,22.91319,0,0,0,155.09264,168.1498Z" transform="translate(-13.39593 -14.93062)"/><path class="cls-2" d="M140.29858,194.47076a21.47161,21.47161,0,0,0,5.05683-3.85387,21.13058,21.13058,0,0,0,3.30955-4.44168,21.434,21.434,0,0,0,2.63885-11.90217,22.86225,22.86225,0,0,0-8.32141,8.744,22.59017,22.59017,0,0,0-1.45271,3.32836A22.91314,22.91314,0,0,0,140.29858,194.47076Z" transform="translate(-13.39593 -14.93062)"/><path class="cls-2" d="M111.39127,174.0199a21.47185,21.47185,0,0,0,5.46375,3.25134,21.13091,21.13091,0,0,0,5.35638,1.411,21.434,21.434,0,0,0,12.02639-1.99781,22.86247,22.86247,0,0,0-11.21932-4.45311,22.59222,22.59222,0,0,0-3.63007-.10436A22.913,22.913,0,0,0,111.39127,174.0199Z" transform="translate(-13.39593 -14.93062)"/><path class="cls-2" d="M123.86134,207.82186a21.47161,21.47161,0,0,0,3.4879-5.31586,21.13023,21.13023,0,0,0,1.6446-5.28932,21.434,21.434,0,0,0-1.4683-12.10245,22.86236,22.86236,0,0,0-4.941,11.01316,22.59057,22.59057,0,0,0-.26351,3.622A22.913,22.913,0,0,0,123.86134,207.82186Z" transform="translate(-13.39593 -14.93062)"/><path class="cls-2" d="M116.1527,188.4754a21.471,21.471,0,0,0-5.29751-3.5157,21.13045,21.13045,0,0,0-5.28064-1.67228,21.434,21.434,0,0,0-12.11,1.40488,22.86222,22.86222,0,0,0,10.98712,4.99862,22.59146,22.59146,0,0,0,3.62058.28248A22.91327,22.91327,0,0,0,116.1527,188.4754Z" transform="translate(-13.39593 -14.93062)"/><path class="cls-2" d="M117.66654,218.62884a21.47129,21.47129,0,0,0,1.01383-6.27661,21.13056,21.13056,0,0,0-.658-5.49988,21.43406,21.43406,0,0,0-6.28114-10.44856,22.86231,22.86231,0,0,0-.01443,12.07075,22.59055,22.59055,0,0,0,1.23812,3.414A22.913,22.913,0,0,0,117.66654,218.62884Z" transform="translate(-13.39593 -14.93062)"/><path class="cls-2" d="M103.09449,198.55919a21.47124,21.47124,0,0,0-5.27816-3.5447,21.13013,21.13013,0,0,0-5.27138-1.70121,21.43409,21.43409,0,0,0-12.1175,1.33845,22.86232,22.86232,0,0,0,10.95955,5.0588,22.59184,22.59184,0,0,0,3.619.30233A22.91325,22.91325,0,0,0,103.09449,198.55919Z" transform="translate(-13.39593 -14.93062)"/><path class="cls-2" d="M100.95834,230.94948a21.47153,21.47153,0,0,0,1.92015-6.0611,21.13031,21.13031,0,0,0,.15271-5.537,21.434,21.434,0,0,0-4.68687-11.25426,22.86236,22.86236,0,0,0-1.77816,11.93906,22.59063,22.59063,0,0,0,.72594,3.55828A22.913,22.913,0,0,0,100.95834,230.94948Z" transform="translate(-13.39593 -14.93062)"/><path class="cls-2" d="M91.82276,210.38193a21.47117,21.47117,0,0,0-6.30168-.84415,21.13,21.13,0,0,0-5.48013.80616,21.434,21.434,0,0,0-10.27532,6.56071,22.86239,22.86239,0,0,0,12.06674-.3112,22.59175,22.59175,0,0,0,3.37937-1.32975A22.91331,22.91331,0,0,0,91.82276,210.38193Z" transform="translate(-13.39593 -14.93062)"/><path class="cls-2" d="M85.69968,220.12888a21.47143,21.47143,0,0,0-1.98489,6.0402,21.13024,21.13024,0,0,0-.21195,5.535A21.434,21.434,0,0,0,88.069,243.00789a22.8624,22.8624,0,0,0,1.9058-11.91936,22.59272,22.59272,0,0,0-.68782-3.56584A22.91315,22.91315,0,0,0,85.69968,220.12888Z" transform="translate(-13.39593 -14.93062)"/><path class="cls-2" d="M77.19773,228.76464a21.47111,21.47111,0,0,0-6.35653.13559,21.13054,21.13054,0,0,0-5.2908,1.63983,21.43407,21.43407,0,0,0-9.1434,8.06371,22.86233,22.86233,0,0,0,11.87515-2.16429,22.59164,22.59164,0,0,0,3.13449-1.83392A22.91346,22.91346,0,0,0,77.19773,228.76464Z" transform="translate(-13.39593 -14.93062)"/><path class="cls-2" d="M73.13273,243.151a21.47147,21.47147,0,0,0,.00991,6.358,21.13026,21.13026,0,0,0,1.53492,5.32219,21.434,21.434,0,0,0,7.88138,9.301,22.8623,22.8623,0,0,0-1.92911-11.91561,22.59249,22.59249,0,0,0-1.7716-3.17013A22.91318,22.91318,0,0,0,73.13273,243.151Z" transform="translate(-13.39593 -14.93062)"/><path class="cls-2" d="M68.30011,256.20364a21.47167,21.47167,0,0,0-6.25674,1.13,21.13019,21.13019,0,0,0-4.96847,2.44867,21.43412,21.43412,0,0,0-7.7668,9.39691,22.86224,22.86224,0,0,0,11.38927-3.99846,22.59,22.59,0,0,0,2.80838-2.30246A22.913,22.913,0,0,0,68.30011,256.20364Z" transform="translate(-13.39593 -14.93062)"/><path class="cls-2" d="M68.24709,268.45323a21.47153,21.47153,0,0,0-3.77008,5.1196,21.13061,21.13061,0,0,0-1.928,5.19273,21.43408,21.43408,0,0,0,.81214,12.16411,22.86236,22.86236,0,0,0,5.52893-10.73006,22.59216,22.59216,0,0,0,.45886-3.60247A22.91329,22.91329,0,0,0,68.24709,268.45323Z" transform="translate(-13.39593 -14.93062)"/><path class="cls-2" d="M313.87491,143.66107a21.4716,21.4716,0,0,0,5.264-3.56566,21.13045,21.13045,0,0,0,3.55227-4.25007,21.43393,21.43393,0,0,0,3.29893-11.73635,22.86244,22.86244,0,0,0-8.7964,8.266,22.59086,22.59086,0,0,0-1.63618,3.2421A22.91238,22.91238,0,0,0,313.87491,143.66107Z" transform="translate(-13.39593 -14.93062)"/><path class="cls-2" d="M313.31039,148.195a21.47191,21.47191,0,0,0-6.12231-1.71495,21.13072,21.13072,0,0,0-5.539.03383,21.434,21.434,0,0,0-11.09,5.06321,22.86231,22.86231,0,0,0,11.99218,1.37509,22.5898,22.5898,0,0,0,3.5318-.84535A22.91228,22.91228,0,0,0,313.31039,148.195Z" transform="translate(-13.39593 -14.93062)"/><path class="cls-2" d="M303.38211,134.85281a21.47166,21.47166,0,0,0-6.01338-2.06473,21.13045,21.13045,0,0,0-5.53176-.28525,21.434,21.434,0,0,0-11.36324,4.41606,22.86225,22.86225,0,0,0,11.89306,2.06351,22.58913,22.58913,0,0,0,3.57464-.64053A22.91235,22.91235,0,0,0,303.38211,134.85281Z" transform="translate(-13.39593 -14.93062)"/><path class="cls-2" d="M328.38211,117.85281a21.47166,21.47166,0,0,0-6.01338-2.06473,21.13045,21.13045,0,0,0-5.53176-.28525,21.434,21.434,0,0,0-11.36324,4.41606,22.86225,22.86225,0,0,0,11.89306,2.06351,22.58913,22.58913,0,0,0,3.57464-.64053A22.91235,22.91235,0,0,0,328.38211,117.85281Z" transform="translate(-13.39593 -14.93062)"/><path class="cls-2" d="M318.309,91.60967a21.47142,21.47142,0,0,0-4.96983,3.96542,21.131,21.131,0,0,0-3.20992,4.51422,21.434,21.434,0,0,0-2.37336,11.95793,22.86218,22.86218,0,0,0,8.12479-8.927,22.58969,22.58969,0,0,0,1.37829-3.35985A22.9125,22.9125,0,0,0,318.309,91.60967Z" transform="translate(-13.39593 -14.93062)"/><path class="cls-2" d="M344.51693,104.82846a21.47148,21.47148,0,0,0-5.80959-2.5831,21.13112,21.13112,0,0,0-5.48557-.7683,21.434,21.434,0,0,0-11.70613,3.40462,22.86229,22.86229,0,0,0,11.66683,3.09647,22.5903,22.5903,0,0,0,3.617-.32522A22.91237,22.91237,0,0,0,344.51693,104.82846Z" transform="translate(-13.39593 -14.93062)"/><path class="cls-2" d="M342.62334,79.10178a21.47194,21.47194,0,0,0-5.75654,2.69927,21.13115,21.13115,0,0,0-4.17277,3.64276,21.43414,21.43414,0,0,0-5.0924,11.07667,22.86227,22.86227,0,0,0,9.98-6.78986,22.59072,22.59072,0,0,0,2.12271-2.94659A22.91239,22.91239,0,0,0,342.62334,79.10178Z" transform="translate(-13.39593 -14.93062)"/><path class="cls-2" d="M360.74377,105.09636a21.47214,21.47214,0,0,0-3.44122-5.3462,21.13088,21.13088,0,0,0-4.16559-3.651,21.434,21.434,0,0,0-11.65576-3.57328,22.86235,22.86235,0,0,0,8.05741,8.98784,22.58886,22.58886,0,0,0,3.20283,1.71177A22.91248,22.91248,0,0,0,360.74377,105.09636Z" transform="translate(-13.39593 -14.93062)"/><path class="cls-2" d="M359.18059,64.72725a21.47166,21.47166,0,0,0-4.05069,4.90058,21.13072,21.13072,0,0,0-2.21562,5.07669,21.43392,21.43392,0,0,0,.1301,12.19049,22.86234,22.86234,0,0,0,6.12077-10.40381,22.59057,22.59057,0,0,0,.65975-3.57114A22.91234,22.91234,0,0,0,359.18059,64.72725Z" transform="translate(-13.39593 -14.93062)"/><path class="cls-2" d="M362.18059,87.72725a21.47184,21.47184,0,0,0,1.40036,6.20184,21.13051,21.13051,0,0,0,2.66189,4.85758,21.43392,21.43392,0,0,0,9.725,7.35186,22.86232,22.86232,0,0,0-4.48874-11.2051,22.58983,22.58983,0,0,0-2.42211-2.70585A22.91247,22.91247,0,0,0,362.18059,87.72725Z" transform="translate(-13.39593 -14.93062)"/><path class="cls-2" d="M379.05,64.1066a21.47132,21.47132,0,0,0-5.23405,3.6095,21.1305,21.1305,0,0,0-3.51665,4.27959,21.43391,21.43391,0,0,0-3.20079,11.7635A22.86227,22.86227,0,0,0,375.82551,75.42a22.58989,22.58989,0,0,0,1.609-3.25565A22.91238,22.91238,0,0,0,379.05,64.1066Z" transform="translate(-13.39593 -14.93062)"/><path class="cls-2" d="M376.85037,85.9795a21.472,21.472,0,0,0,1.62357,6.14718,21.13111,21.13111,0,0,0,2.8357,4.7582,21.434,21.434,0,0,0,9.98432,6.99561,22.86227,22.86227,0,0,0-4.89076-11.03557,22.59006,22.59006,0,0,0-2.51832-2.61655A22.91226,22.91226,0,0,0,376.85037,85.9795Z" transform="translate(-13.39593 -14.93062)"/><path class="cls-2" d="M382.58413,84.42944a21.472,21.472,0,0,0,6.25535-1.13769A21.13074,21.13074,0,0,0,393.805,80.837a21.434,21.434,0,0,0,7.75525-9.40643A22.86228,22.86228,0,0,0,390.17585,75.443a22.59033,22.59033,0,0,0-2.80555,2.3059A22.91245,22.91245,0,0,0,382.58413,84.42944Z" transform="translate(-13.39593 -14.93062)"/><path class="cls-2" d="M393.76775,86.31127a21.47177,21.47177,0,0,0,1.00976,6.27727,21.13133,21.13133,0,0,0,2.3529,5.01454,21.434,21.434,0,0,0,9.24617,7.94564,22.86234,22.86234,0,0,0-3.77921-11.46388,22.58966,22.58966,0,0,0-2.24816-2.852A22.91219,22.91219,0,0,0,393.76775,86.31127Z" transform="translate(-13.39593 -14.93062)"/><path class="cls-2" d="M422.21044,69.80385a21.47168,21.47168,0,0,0-5.94148,2.26331,21.13106,21.13106,0,0,0-4.43234,3.32207,21.43392,21.43392,0,0,0-5.90272,10.66691,22.86241,22.86241,0,0,0,10.45772-6.0282,22.5897,22.5897,0,0,0,2.33614-2.78042A22.91267,22.91267,0,0,0,422.21044,69.80385Z" transform="translate(-13.39593 -14.93062)"/><path class="cls-2" d="M415.23736,90.57662A21.47155,21.47155,0,0,0,413.6,96.72014a21.131,21.131,0,0,0,.1039,5.53813,21.434,21.434,0,0,0,5.2031,11.0251,22.86239,22.86239,0,0,0,1.22328-12.00861,22.58993,22.58993,0,0,0-.89-3.52083A22.91235,22.91235,0,0,0,415.23736,90.57662Z" transform="translate(-13.39593 -14.93062)"/><path class="cls-2" d="M421.93172,89.1428a21.47173,21.47173,0,0,0,6.30668.80594,21.13071,21.13071,0,0,0,5.47514-.83937,21.434,21.434,0,0,0,10.23536-6.62288,22.86237,22.86237,0,0,0-12.06464.38434,22.59018,22.59018,0,0,0-3.37123,1.35022A22.91232,22.91232,0,0,0,421.93172,89.1428Z" transform="translate(-13.39593 -14.93062)"/><path class="cls-2" d="M444.8223,111.24435a21.47159,21.47159,0,0,0-2.14446-5.9854,21.13093,21.13093,0,0,0-3.23309-4.49765,21.434,21.434,0,0,0-10.54716-6.11411A22.86219,22.86219,0,0,0,434.7162,105.223a22.59066,22.59066,0,0,0,2.73331,2.39108A22.91243,22.91243,0,0,0,444.8223,111.24435Z" transform="translate(-13.39593 -14.93062)"/><path class="cls-2" d="M466.32391,96.02754a21.47187,21.47187,0,0,0-5.99238-2.12487,21.13094,21.13094,0,0,0-5.52863-.34067A21.434,21.434,0,0,0,443.396,97.864a22.86228,22.86228,0,0,0,11.8718,2.18257,22.58917,22.58917,0,0,0,3.58087-.60468A22.91234,22.91234,0,0,0,466.32391,96.02754Z" transform="translate(-13.39593 -14.93062)"/><path class="cls-2" d="M467.233,125.979a21.47141,21.47141,0,0,0-.48694-6.33929,21.13065,21.13065,0,0,0-1.92994-5.192,21.434,21.434,0,0,0-8.55707-8.68341,22.86243,22.86243,0,0,0,2.81777,11.73727,22.58982,22.58982,0,0,0,2.00448,3.02825A22.91233,22.91233,0,0,0,467.233,125.979Z" transform="translate(-13.39593 -14.93062)"/><path class="cls-2" d="M493.18194,115.19406a21.472,21.472,0,0,0-5.47169-3.23795,21.13022,21.13022,0,0,0-5.35983-1.39785,21.434,21.434,0,0,0-12.02144,2.02726,22.86235,22.86235,0,0,0,11.23019,4.42561,22.59122,22.59122,0,0,0,3.63031.09547A22.9123,22.9123,0,0,0,493.18194,115.19406Z" transform="translate(-13.39593 -14.93062)"/><path class="cls-2" d="M494.93769,143.48312a21.47159,21.47159,0,0,0-.99113-6.28024,21.13076,21.13076,0,0,0-2.338-5.0215,21.434,21.434,0,0,0-9.22255-7.973,22.86223,22.86223,0,0,0,3.74518,11.475,22.59044,22.59044,0,0,0,2.23968,2.85869A22.91243,22.91243,0,0,0,494.93769,143.48312Z" transform="translate(-13.39593 -14.93062)"/><path class="cls-2" d="M295.31835,118.10511a21.47205,21.47205,0,0,0,3.72465-5.15274,21.13071,21.13071,0,0,0,1.882-5.20958,21.43405,21.43405,0,0,0-.91968-12.15644,22.8622,22.8622,0,0,0-5.43382,10.77853,22.59015,22.59015,0,0,0-.427,3.60638A22.91251,22.91251,0,0,0,295.31835,118.10511Z" transform="translate(-13.39593 -14.93062)"/><path class="cls-2" d="M275.32693,133.6424a21.47164,21.47164,0,0,0,5.70534-2.80586,21.13076,21.13076,0,0,0,4.1043-3.71974,21.434,21.434,0,0,0,4.8855-11.16946,22.8622,22.8622,0,0,0-9.852,6.9743,22.58887,22.58887,0,0,0-2.06754,2.98556A22.91249,22.91249,0,0,0,275.32693,133.6424Z" transform="translate(-13.39593 -14.93062)"/><path class="cls-2" d="M265.59645,134.876a21.47177,21.47177,0,0,0,4.05509-4.89694,21.13089,21.13089,0,0,0,2.22018-5.0747,21.43406,21.43406,0,0,0-.11917-12.1906,22.86234,22.86234,0,0,0-6.1301,10.39832,22.58975,22.58975,0,0,0-.663,3.57054A22.9125,22.9125,0,0,0,265.59645,134.876Z" transform="translate(-13.39593 -14.93062)"/><path class="cls-2" d="M263.50329,94.93922a21.4717,21.4717,0,0,0,3.16488,5.51429,21.13074,21.13074,0,0,0,3.97452,3.8581,21.43392,21.43392,0,0,0,11.45894,4.16143,22.86233,22.86233,0,0,0-7.58988-9.386,22.58979,22.58979,0,0,0-3.11163-1.87244A22.91251,22.91251,0,0,0,263.50329,94.93922Z" transform="translate(-13.39593 -14.93062)"/><path class="cls-2" d="M240.56615,108.25444a21.47162,21.47162,0,0,0,5.11667,3.774,21.13051,21.13051,0,0,0,5.19123,1.93206,21.434,21.434,0,0,0,12.16473-.80271,22.86229,22.86229,0,0,0-10.72577-5.53724,22.58953,22.58953,0,0,0-3.6021-.46165A22.91219,22.91219,0,0,0,240.56615,108.25444Z" transform="translate(-13.39593 -14.93062)"/><path class="cls-2" d="M255.79828,122.89207a21.47187,21.47187,0,0,0-5.24141,3.5988,21.13028,21.13028,0,0,0-3.52539,4.27239,21.434,21.434,0,0,0-3.22484,11.75693,22.86218,22.86218,0,0,0,8.74408-8.32131,22.58861,22.58861,0,0,0,1.6157-3.25235A22.91226,22.91226,0,0,0,255.79828,122.89207Z" transform="translate(-13.39593 -14.93062)"/><path class="cls-2" d="M248.94131,123.56358a21.47148,21.47148,0,0,0-4.97736-3.956,21.13113,21.13113,0,0,0-5.11824-2.11786,21.434,21.434,0,0,0-12.18575.36387,22.86226,22.86226,0,0,0,10.51928,5.92012,22.58858,22.58858,0,0,0,3.58313.59114A22.91207,22.91207,0,0,0,248.94131,123.56358Z" transform="translate(-13.39593 -14.93062)"/><path class="cls-2" d="M237.14744,133.58624a21.47166,21.47166,0,0,0-6.18187-1.486,21.13049,21.13049,0,0,0-5.53391.23987,21.434,21.434,0,0,0-10.894,5.47229,22.86232,22.86232,0,0,0,12.035.928,22.58888,22.58888,0,0,0,3.49791-.97616A22.91218,22.91218,0,0,0,237.14744,133.58624Z" transform="translate(-13.39593 -14.93062)"/><path class="cls-2" d="M281.2464,95.19475a21.47145,21.47145,0,0,0,5.7612-2.6893,21.13063,21.13063,0,0,0,4.17907-3.63554,21.434,21.434,0,0,0,5.11156-11.06783,22.86227,22.86227,0,0,0-9.99176,6.77258,22.5893,22.5893,0,0,0-2.12781,2.94291A22.91247,22.91247,0,0,0,281.2464,95.19475Z" transform="translate(-13.39593 -14.93062)"/><path class="cls-2" d="M273.15445,91.49054a21.47144,21.47144,0,0,0,.775-6.31056,21.13051,21.13051,0,0,0-.86622-5.471,21.434,21.434,0,0,0-6.673-10.20273,22.8623,22.8623,0,0,0,.44354,12.0626,22.58926,22.58926,0,0,0,1.36675,3.36457A22.91263,22.91263,0,0,0,273.15445,91.49054Z" transform="translate(-13.39593 -14.93062)"/><path class="cls-2" d="M258.56506,87.00272a21.47148,21.47148,0,0,0-2.0167-6.02965,21.13065,21.13065,0,0,0-3.13671-4.56539,21.434,21.434,0,0,0-10.41477-6.337,22.86243,22.86243,0,0,0,5.5924,10.69711,22.58983,22.58983,0,0,0,2.68186,2.44866A22.91254,22.91254,0,0,0,258.56506,87.00272Z" transform="translate(-13.39593 -14.93062)"/><path class="cls-2" d="M237.87557,97.4739a21.47142,21.47142,0,0,0,6.33317.561,21.13077,21.13077,0,0,0,5.43851-1.05087,21.43389,21.43389,0,0,0,9.97106-7.01449,22.86237,22.86237,0,0,0-12.04068.85151,22.58926,22.58926,0,0,0-3.31638,1.47983A22.91238,22.91238,0,0,0,237.87557,97.4739Z" transform="translate(-13.39593 -14.93062)"/><path class="cls-2" d="M222.985,113.64213a21.47174,21.47174,0,0,0,4.3252-4.66008,21.13107,21.13107,0,0,0,2.50326-4.9412A21.43407,21.43407,0,0,0,230.383,91.863a22.86232,22.86232,0,0,0-6.70763,10.03549,22.59022,22.59022,0,0,0-.86357,3.52739A22.91249,22.91249,0,0,0,222.985,113.64213Z" transform="translate(-13.39593 -14.93062)"/><path class="cls-2" d="M218.46422,73.94246a21.472,21.472,0,0,0,3.18461,5.50291,21.13126,21.13126,0,0,0,3.98832,3.84383,21.43406,21.43406,0,0,0,11.47379,4.12035,22.86241,22.86241,0,0,0-7.62347-9.35874,22.58905,22.58905,0,0,0-3.11832-1.86127A22.91227,22.91227,0,0,0,218.46422,73.94246Z" transform="translate(-13.39593 -14.93062)"/><path class="cls-2" d="M216.1419,100.25534a21.4718,21.4718,0,0,0-3.2619,5.45746,21.13113,21.13113,0,0,0-1.42132,5.35365,21.434,21.434,0,0,0,1.97458,12.03021A22.86229,22.86229,0,0,0,217.908,111.886a22.58983,22.58983,0,0,0,.11138-3.62986A22.91251,22.91251,0,0,0,216.1419,100.25534Z" transform="translate(-13.39593 -14.93062)"/><path class="cls-2" d="M209.75458,101.56731a21.47146,21.47146,0,0,0-6.29848-.86773,21.13051,21.13051,0,0,0-5.4831.78565,21.43391,21.43391,0,0,0-10.29979,6.52222,22.86233,22.86233,0,0,0,12.06782-.26605,22.59094,22.59094,0,0,0,3.3843-1.3171A22.91263,22.91263,0,0,0,209.75458,101.56731Z" transform="translate(-13.39593 -14.93062)"/><path class="cls-2" d="M201.78763,114.639a21.47149,21.47149,0,0,0-4.01814,4.9273,21.13112,21.13112,0,0,0-2.182,5.09125,21.43408,21.43408,0,0,0,.21085,12.18937,22.8623,22.8623,0,0,0,6.05172-10.44413,22.58889,22.58889,0,0,0,.63608-3.57543A22.91249,22.91249,0,0,0,201.78763,114.639Z" transform="translate(-13.39593 -14.93062)"/><path class="cls-2" d="M191.20343,121.22594a21.47192,21.47192,0,0,0-6.24555,1.19028,21.13063,21.13063,0,0,0-4.94464,2.49646,21.434,21.434,0,0,0-7.67584,9.47135,22.86236,22.86236,0,0,0,11.35019-4.10807,22.58975,22.58975,0,0,0,2.786-2.32943A22.91231,22.91231,0,0,0,191.20343,121.22594Z" transform="translate(-13.39593 -14.93062)"/><path class="cls-2" d="M190.40339,130.60976a21.47168,21.47168,0,0,0-3.85625,5.055,21.13071,21.13071,0,0,0-2.0157,5.15933,21.434,21.434,0,0,0,.606,12.17611,22.86232,22.86232,0,0,0,5.70986-10.63487,22.58933,22.58933,0,0,0,.5198-3.59418A22.91243,22.91243,0,0,0,190.40339,130.60976Z" transform="translate(-13.39593 -14.93062)"/><path class="cls-2" d="M171.37872,142.55317a21.4719,21.4719,0,0,0-6.35427-.2167,21.13119,21.13119,0,0,0-5.37352,1.34426,21.434,21.434,0,0,0-9.576,7.5449,22.86236,22.86236,0,0,0,11.97679-1.50323,22.58953,22.58953,0,0,0,3.23125-1.65749A22.91212,22.91212,0,0,0,171.37872,142.55317Z" transform="translate(-13.39593 -14.93062)"/><path class="cls-2" d="M218.0602,89.82106a21.47175,21.47175,0,0,0-4.11994-4.84251,21.13089,21.13089,0,0,0-4.613-3.06619,21.43405,21.43405,0,0,0-12.02673-1.99569,22.8624,22.8624,0,0,0,9.17837,7.8397,22.58932,22.58932,0,0,0,3.40158,1.27181A22.91243,22.91243,0,0,0,218.0602,89.82106Z" transform="translate(-13.39593 -14.93062)"/><path class="cls-2" d="M200.0602,93.82106a21.47175,21.47175,0,0,0-4.11994-4.84251,21.13089,21.13089,0,0,0-4.613-3.06619,21.43405,21.43405,0,0,0-12.02673-1.99569,22.8624,22.8624,0,0,0,9.17837,7.8397,22.58932,22.58932,0,0,0,3.40158,1.27181A22.91243,22.91243,0,0,0,200.0602,93.82106Z" transform="translate(-13.39593 -14.93062)"/><path class="cls-2" d="M183.0602,99.82106a21.47175,21.47175,0,0,0-4.11994-4.84251,21.13089,21.13089,0,0,0-4.613-3.06619,21.43405,21.43405,0,0,0-12.02673-1.99569,22.8624,22.8624,0,0,0,9.17837,7.8397,22.58932,22.58932,0,0,0,3.40158,1.27181A22.91243,22.91243,0,0,0,183.0602,99.82106Z" transform="translate(-13.39593 -14.93062)"/><path class="cls-2" d="M170.18271,123.9492a21.47191,21.47191,0,0,0,5.039-3.87719,21.13054,21.13054,0,0,0,3.289-4.45693,21.434,21.434,0,0,0,2.58381-11.91423,22.86237,22.86237,0,0,0-8.28091,8.78235,22.58981,22.58981,0,0,0-1.43731,3.335A22.91217,22.91217,0,0,0,170.18271,123.9492Z" transform="translate(-13.39593 -14.93062)"/><path class="cls-2" d="M142.27451,104.13688a21.47171,21.47171,0,0,0,5.36612,3.41006,21.1306,21.1306,0,0,0,5.31274,1.56733,21.434,21.434,0,0,0,12.07975-1.64455,22.8623,22.8623,0,0,0-11.084-4.77995,22.58962,22.58962,0,0,0-3.62545-.21068A22.91249,22.91249,0,0,0,142.27451,104.13688Z" transform="translate(-13.39593 -14.93062)"/><path class="cls-2" d="M154.412,138.21916a21.47173,21.47173,0,0,0,3.62377-5.22418,21.13081,21.13081,0,0,0,1.78038-5.24519,21.434,21.434,0,0,0-1.15588-12.13626,22.86229,22.86229,0,0,0-5.22321,10.88215,22.59013,22.59013,0,0,0-.35678,3.614A22.91256,22.91256,0,0,0,154.412,138.21916Z" transform="translate(-13.39593 -14.93062)"/><path class="cls-2" d="M125.14966,119.65256a21.47162,21.47162,0,0,0,5.97856,2.16344,21.13028,21.13028,0,0,0,5.52632.37628,21.43387,21.43387,0,0,0,11.4344-4.2284,22.86238,22.86238,0,0,0-11.85748-2.259,22.59046,22.59046,0,0,0-3.58469.5816A22.91236,22.91236,0,0,0,125.14966,119.65256Z" transform="translate(-13.39593 -14.93062)"/><path class="cls-2" d="M137.24215,148.17689a21.4719,21.4719,0,0,0,3.68484-5.18128,21.13061,21.13061,0,0,0,1.84184-5.22393,21.43394,21.43394,0,0,0-1.01332-12.149,22.86227,22.86227,0,0,0-5.35061,10.82007,22.5901,22.5901,0,0,0-.39918,3.60957A22.91242,22.91242,0,0,0,137.24215,148.17689Z" transform="translate(-13.39593 -14.93062)"/><path class="cls-2" d="M107.98258,122.44343a21.47167,21.47167,0,0,0,4.391,4.59814A21.13077,21.13077,0,0,0,117.155,129.838a21.434,21.434,0,0,0,12.12142,1.30234,22.86228,22.86228,0,0,0-9.61306-7.30015,22.58935,22.58935,0,0,0-3.46895-1.07455A22.91239,22.91239,0,0,0,107.98258,122.44343Z" transform="translate(-13.39593 -14.93062)"/><path class="cls-2" d="M129.38276,134.95778a21.47159,21.47159,0,0,0-4.32207,4.663,21.13058,21.13058,0,0,0-2.49994,4.94288,21.43387,21.43387,0,0,0-.5614,12.17825,22.86226,22.86226,0,0,0,6.70089-10.04,22.58872,22.58872,0,0,0,.8612-3.528A22.91246,22.91246,0,0,0,129.38276,134.95778Z" transform="translate(-13.39593 -14.93062)"/><path class="cls-2" d="M117.08858,139.91042a21.47158,21.47158,0,0,0-5.56052-3.08291,21.1306,21.1306,0,0,0-5.397-1.24667,21.434,21.434,0,0,0-11.95973,2.3643,22.86238,22.86238,0,0,0,11.35012,4.10826,22.59059,22.59059,0,0,0,3.63156-.00659A22.91232,22.91232,0,0,0,117.08858,139.91042Z" transform="translate(-13.39593 -14.93062)"/><path class="cls-2" d="M105.81532,171.96635a21.47184,21.47184,0,0,0,3.8829-5.03457,21.13028,21.13028,0,0,0,2.04292-5.14861,21.434,21.434,0,0,0-.54167-12.17914,22.86225,22.86225,0,0,0-5.766,10.60456,22.58979,22.58979,0,0,0-.53878,3.59138A22.91251,22.91251,0,0,0,105.81532,171.96635Z" transform="translate(-13.39593 -14.93062)"/><path class="cls-2" d="M80.33308,149.40565a21.47158,21.47158,0,0,0,5.17458,3.69425,21.13071,21.13071,0,0,0,5.22057,1.85132,21.434,21.434,0,0,0,12.15082-.99126,22.86241,22.86241,0,0,0-10.81035-5.37025,22.589,22.589,0,0,0-3.60883-.40573A22.91212,22.91212,0,0,0,80.33308,149.40565Z" transform="translate(-13.39593 -14.93062)"/><path class="cls-2" d="M73.77466,183.1939a21.47172,21.47172,0,0,0,6.0994-1.79473,21.13057,21.13057,0,0,0,4.6771-2.96757A21.434,21.434,0,0,0,91.265,168.25568a22.8623,22.8623,0,0,0-10.89457,5.19725,22.59086,22.59086,0,0,0-2.54515,2.59046A22.91241,22.91241,0,0,0,73.77466,183.1939Z" transform="translate(-13.39593 -14.93062)"/></svg>